<svg width="18" height="19" viewBox="0 0 18 19" fill="none" xmlns="http://www.w3.org/2000/svg">
<path d="M2.42967 7.01497L5.19347 11.1781C5.20517 11.221 5.20717 11.266 5.19932 11.3098C5.18687 11.4357 5.13635 11.6001 5.05088 11.7697C4.56224 12.7458 4.4755 14.0001 4.6016 15.0543C4.66019 15.5854 4.78718 16.1066 4.97941 16.6051C5.16158 17.0603 5.43468 17.5404 5.84561 17.8774C6.58221 18.477 7.41719 18.1075 7.74544 17.8896L11.5661 15.3531L13.2254 17.8525C13.3721 18.0735 13.6006 18.2271 13.8605 18.2796C14.1205 18.3321 14.3907 18.2792 14.6116 18.1325C14.8326 17.9858 14.9862 17.7574 15.0387 17.4974C15.0912 17.2375 15.0383 16.9673 14.8916 16.7463L13.2324 14.247L17.0531 11.7105C17.3821 11.492 18.0468 10.8659 17.7784 9.95542C17.6274 9.44591 17.291 9.00788 16.9414 8.66385C16.5573 8.29324 16.1269 7.97378 15.661 7.71339C14.7365 7.18686 13.5483 6.78018 12.459 6.85158C12.2973 6.86568 12.1344 6.85157 11.9776 6.80987C11.9342 6.8001 11.8935 6.78079 11.8584 6.75334L9.09463 2.59024L9.92776 2.03715C10.1487 1.89046 10.3023 1.662 10.3549 1.40204C10.4074 1.14207 10.3545 0.871893 10.2078 0.650936C10.0611 0.429979 9.83264 0.276343 9.57267 0.223827C9.31271 0.171311 9.04253 0.224218 8.82157 0.370907L0.490368 5.90182C0.269411 6.04851 0.115775 6.27697 0.0632596 6.53693C0.010744 6.7969 0.0636499 7.06708 0.210339 7.28803C0.357028 7.50899 0.585484 7.66263 0.845449 7.71514C1.10541 7.76766 1.37559 7.71475 1.59655 7.56806L2.42967 7.01497Z" fill="#866900"/>
</svg>
