<svg width="53" height="48" viewBox="0 0 53 48" fill="none" xmlns="http://www.w3.org/2000/svg">
<path d="M18.3125 47.25C20.4526 47.25 22.1875 45.5151 22.1875 43.375C22.1875 41.2349 20.4526 39.5 18.3125 39.5C16.1724 39.5 14.4375 41.2349 14.4375 43.375C14.4375 45.5151 16.1724 47.25 18.3125 47.25Z" fill="black"/>
<path d="M45.4375 47.25C47.5776 47.25 49.3125 45.5151 49.3125 43.375C49.3125 41.2349 47.5776 39.5 45.4375 39.5C43.2974 39.5 41.5625 41.2349 41.5625 43.375C41.5625 45.5151 43.2974 47.25 45.4375 47.25Z" fill="black"/>
<path d="M52.3156 7.6257C52.0434 7.29275 51.7005 7.0246 51.3117 6.84069C50.923 6.65679 50.4982 6.56176 50.0681 6.5625H13.2132L12.4709 2.35086C12.3918 1.90224 12.1571 1.49586 11.8081 1.20309C11.4591 0.910328 11.018 0.749904 10.5625 0.75H2.8125C2.29864 0.75 1.80583 0.954129 1.44248 1.31748C1.07913 1.68083 0.875 2.17364 0.875 2.6875C0.875 3.20136 1.07913 3.69417 1.44248 4.05752C1.80583 4.42087 2.29864 4.625 2.8125 4.625H8.93742L14.4666 35.9616C14.5457 36.4103 14.7804 36.8166 15.1294 37.1094C15.4784 37.4022 15.9195 37.5626 16.375 37.5625H47.375C47.8889 37.5625 48.3817 37.3584 48.745 36.995C49.1084 36.6317 49.3125 36.1389 49.3125 35.625C49.3125 35.1111 49.1084 34.6183 48.745 34.255C48.3817 33.8916 47.8889 33.6875 47.375 33.6875H18.0001L17.3171 29.8125H46.5806C47.2525 29.8116 47.9035 29.5787 48.4234 29.153C48.9433 28.7273 49.3002 28.1351 49.4336 27.4766L52.9211 10.0391C53.0051 9.61709 52.9944 9.18169 52.8897 8.76433C52.785 8.34697 52.5889 7.95807 52.3156 7.6257Z" fill="black"/>
</svg>
