<svg width="28" height="31" viewBox="0 0 28 31" fill="none" xmlns="http://www.w3.org/2000/svg">
<path d="M19.5939 10.0159C19.7122 10.1401 19.8061 10.2875 19.8701 10.4498C19.9342 10.6121 19.9671 10.7861 19.9671 10.9618C19.9671 11.1375 19.9342 11.3115 19.8701 11.4738C19.8061 11.6361 19.7122 11.7836 19.5939 11.9077L15.7986 15.8933L19.2044 19.4697C19.4432 19.7206 19.5774 20.0608 19.5774 20.4156C19.5774 20.7704 19.4432 21.1107 19.2044 21.3615C18.9656 21.6124 18.6417 21.7533 18.304 21.7533C17.9662 21.7533 17.6423 21.6124 17.4035 21.3615L13.999 17.7838L10.5944 21.3615C10.3556 21.6124 10.0317 21.7533 9.69395 21.7533C9.35622 21.7533 9.03231 21.6124 8.7935 21.3615C8.55468 21.1107 8.42052 20.7704 8.42052 20.4156C8.42052 20.0608 8.55468 19.7206 8.7935 19.4697L12.1993 15.8933L8.40404 11.9077C8.28579 11.7834 8.19201 11.6359 8.12805 11.4735C8.06408 11.3111 8.03119 11.1371 8.03125 10.9614C8.03131 10.7856 8.06432 10.6116 8.12839 10.4493C8.19246 10.2869 8.28635 10.1395 8.40468 10.0152C8.52301 9.89102 8.66348 9.7925 8.81806 9.72531C8.97263 9.65812 9.1383 9.62356 9.30558 9.62363C9.47287 9.62369 9.63851 9.65836 9.79305 9.72567C9.94758 9.79298 10.088 9.8916 10.2062 10.0159L13.999 14.0041L17.793 10.0172C17.9112 9.89294 18.0515 9.79433 18.206 9.72704C18.3605 9.65976 18.5262 9.62513 18.6934 9.62513C18.8607 9.62513 19.0263 9.65976 19.1808 9.72704C19.3353 9.79433 19.4757 9.8916 19.5939 10.0159Z" fill="black"/>
<path fill-rule="evenodd" clip-rule="evenodd" d="M3.81818 0.982422C2.80554 0.982422 1.83437 1.405 1.11832 2.1572C0.402272 2.9094 0 3.9296 0 4.99337V26.3851C0 27.4488 0.402272 28.469 1.11832 29.2212C1.83437 29.9734 2.80554 30.396 3.81818 30.396H24.1818C25.1945 30.396 26.1656 29.9734 26.8817 29.2212C27.5977 28.469 28 27.4488 28 26.3851V4.99337C28 3.9296 27.5977 2.9094 26.8817 2.1572C26.1656 1.405 25.1945 0.982422 24.1818 0.982422H3.81818ZM24.1818 3.65638H3.81818C3.48063 3.65638 3.15691 3.79724 2.91823 4.04798C2.67954 4.29871 2.54545 4.63878 2.54545 4.99337V26.3851C2.54545 26.7397 2.67954 27.0797 2.91823 27.3305C3.15691 27.5812 3.48063 27.722 3.81818 27.722H24.1818C24.5194 27.722 24.8431 27.5812 25.0818 27.3305C25.3205 27.0797 25.4545 26.7397 25.4545 26.3851V4.99337C25.4545 4.63878 25.3205 4.29871 25.0818 4.04798C24.8431 3.79724 24.5194 3.65638 24.1818 3.65638Z" fill="black"/>
</svg>
