<svg width="25" height="27" viewBox="0 0 25 27" fill="none" xmlns="http://www.w3.org/2000/svg">
<path d="M8.30762 8.47021C8.42239 8.47026 8.5368 8.49403 8.64355 8.54053C8.72365 8.57546 8.79869 8.62286 8.86621 8.68115L8.93066 8.74268L12.3174 12.3032L12.498 12.4937L12.6797 12.3042L16.0664 8.74365H16.0674C16.1502 8.65663 16.2479 8.58792 16.3545 8.5415C16.4343 8.50676 16.5183 8.48495 16.6035 8.47607L16.6895 8.47119C16.8042 8.47119 16.9187 8.49504 17.0254 8.5415C17.1061 8.57665 17.181 8.62359 17.248 8.68115L17.3125 8.74268C17.3955 8.82973 17.4622 8.93396 17.5078 9.04932C17.5533 9.16466 17.5771 9.28903 17.5771 9.41455C17.5771 9.54024 17.5534 9.66527 17.5078 9.78076C17.4736 9.86729 17.4279 9.94765 17.3721 10.019L17.3125 10.0874L13.9238 13.646L13.7598 13.8179L13.9238 13.9907L16.9648 17.1841C17.1325 17.3603 17.2285 17.6017 17.2285 17.856C17.2285 18.1102 17.1326 18.3516 16.9648 18.5278C16.7974 18.7037 16.573 18.8003 16.3418 18.8003C16.1395 18.8002 15.9424 18.7266 15.7842 18.5903L15.7188 18.5278L12.6797 15.3335L12.498 15.1431L12.3174 15.3335L9.27734 18.5278C9.10994 18.7037 8.88546 18.8003 8.6543 18.8003C8.4232 18.8002 8.19861 18.7036 8.03125 18.5278C7.86364 18.3516 7.76759 18.1101 7.76758 17.856C7.76758 17.6334 7.84082 17.4203 7.97168 17.2524L8.03125 17.1841L11.0723 13.9907L11.2363 13.8179L11.0723 13.646L7.68359 10.0874C7.60064 10.0002 7.53476 9.8953 7.48926 9.77979C7.44381 9.6643 7.41988 9.54018 7.41992 9.41455C7.41998 9.28889 7.4437 9.16478 7.48926 9.04932C7.53484 8.93384 7.60155 8.82985 7.68457 8.74268C7.76749 8.65563 7.86503 8.58696 7.97168 8.54053C8.07846 8.49411 8.19284 8.47017 8.30762 8.47021Z" fill="#412403" stroke="white" stroke-width="0.5"/>
<path d="M3.40918 0.754852H21.5908C22.4246 0.754852 23.2268 1.10307 23.8203 1.72653C24.4141 2.35037 24.75 3.19868 24.75 4.08591V23.1855C24.75 24.0729 24.4142 24.922 23.8203 25.5459C23.2268 26.1692 22.4245 26.5166 21.5908 26.5166H3.40918L3.25293 26.5127C2.47578 26.4721 1.73602 26.1302 1.17969 25.5459C0.585788 24.922 0.25 24.0729 0.25 23.1855V4.08591L0.253906 3.91989C0.293017 3.09339 0.623057 2.31134 1.17969 1.72653C1.77319 1.10307 2.57542 0.754852 3.40918 0.754852ZM3.27051 2.64938C2.95036 2.68283 2.65131 2.83151 2.4248 3.06931C2.1663 3.34086 2.0225 3.70692 2.02246 4.08591V23.1855C2.02246 23.5646 2.16627 23.9305 2.4248 24.2021C2.68373 24.4741 3.03745 24.6299 3.40918 24.6299H21.5908C21.9626 24.6299 22.3163 24.4741 22.5752 24.2021C22.8337 23.9305 22.9775 23.5646 22.9775 23.1855V4.08591C22.9775 3.70692 22.8337 3.34086 22.5752 3.06931C22.3163 2.79749 21.9625 2.64255 21.5908 2.64255H3.40918L3.27051 2.64938Z" fill="#412403" stroke="white" stroke-width="0.5"/>
</svg>
