<svg width="19" height="21" viewBox="0 0 19 21" fill="none" xmlns="http://www.w3.org/2000/svg">
<path d="M14.875 6.66664C14.875 8.29164 14.3333 10.4583 11.7333 11.325C12.4917 9.48331 12.6 7.64164 12.0583 5.90831C11.3 3.63331 8.80833 1.89997 7.075 0.924974C6.64167 0.599974 5.88333 1.03331 5.99167 1.68331C5.99167 2.87497 5.66667 4.60831 3.825 6.44997C1.44167 8.83331 0.25 11.325 0.25 13.7083C0.25 16.85 2.41667 20.75 6.75 20.75C2.41667 16.4166 5.66667 12.625 5.66667 12.625C6.53333 19.0166 11.0833 20.75 13.25 20.75C15.0917 20.75 18.6667 19.45 18.6667 13.8166C18.6667 10.4583 17.2583 7.85831 16.0667 6.34164C15.7417 5.79997 14.9833 6.12497 14.875 6.66664Z" fill="#E65406"/>
</svg>
