<svg width="28" height="28" viewBox="0 0 28 28" fill="none" xmlns="http://www.w3.org/2000/svg">
<path fill-rule="evenodd" clip-rule="evenodd" d="M20.124 12.499C20.124 13.5331 19.9203 14.5572 19.5245 15.5126C19.1288 16.468 18.5487 17.3362 17.8174 18.0674C17.0862 18.7987 16.218 19.3788 15.2626 19.7745C14.3072 20.1703 13.2831 20.374 12.249 20.374C11.2148 20.374 10.1908 20.1703 9.23533 19.7745C8.27989 19.3788 7.41176 18.7987 6.6805 18.0674C5.94924 17.3362 5.36917 16.468 4.97341 15.5126C4.57766 14.5572 4.37397 13.5331 4.37397 12.499C4.37397 10.4104 5.20365 8.40735 6.6805 6.9305C8.15735 5.45365 10.1604 4.62397 12.249 4.62397C14.3375 4.62397 16.3406 5.45365 17.8174 6.9305C19.2943 8.40735 20.124 10.4104 20.124 12.499ZM18.689 20.794C16.5791 22.4319 13.9244 23.2043 11.2651 22.9537C8.60587 22.7032 6.14207 21.4486 4.37528 19.4454C2.60849 17.4422 1.67153 14.841 1.75515 12.1713C1.83877 9.50157 2.93669 6.96408 4.82538 5.07538C6.71408 3.18669 9.25157 2.08877 11.9213 2.00515C14.591 1.92153 17.1922 2.85849 19.1954 4.62528C21.1986 6.39207 22.4532 8.85587 22.7037 11.5151C22.9543 14.1744 22.1819 16.8291 20.544 18.939L25.4265 23.8215C25.5554 23.9416 25.6588 24.0865 25.7306 24.2475C25.8023 24.4085 25.8409 24.5823 25.844 24.7586C25.8471 24.9348 25.8147 25.1098 25.7487 25.2733C25.6827 25.4367 25.5844 25.5851 25.4598 25.7098C25.3351 25.8344 25.1867 25.9327 25.0233 25.9987C24.8598 26.0647 24.6848 26.0971 24.5086 26.094C24.3323 26.0909 24.1585 26.0523 23.9975 25.9806C23.8365 25.9088 23.6916 25.8054 23.5715 25.6765L18.689 20.794Z" fill="#D77300"/>
</svg>
