<svg width="25" height="25" viewBox="0 0 25 25" fill="none" xmlns="http://www.w3.org/2000/svg">
<path fill-rule="evenodd" clip-rule="evenodd" d="M19.124 10.499C19.124 11.5331 18.9203 12.5572 18.5245 13.5126C18.1288 14.468 17.5487 15.3362 16.8174 16.0674C16.0862 16.7987 15.218 17.3788 14.2626 17.7745C13.3072 18.1703 12.2831 18.374 11.249 18.374C10.2148 18.374 9.19077 18.1703 8.23533 17.7745C7.27989 17.3788 6.41176 16.7987 5.6805 16.0674C4.94924 15.3362 4.36917 14.468 3.97341 13.5126C3.57766 12.5572 3.37397 11.5331 3.37397 10.499C3.37397 8.41039 4.20365 6.40735 5.6805 4.9305C7.15735 3.45365 9.16039 2.62397 11.249 2.62397C13.3375 2.62397 15.3406 3.45365 16.8174 4.9305C18.2943 6.40735 19.124 8.41039 19.124 10.499ZM17.689 18.794C15.5791 20.4319 12.9244 21.2043 10.2651 20.9537C7.60587 20.7032 5.14207 19.4486 3.37528 17.4454C1.60849 15.4422 0.67153 12.841 0.755152 10.1713C0.838774 7.50157 1.93669 4.96408 3.82538 3.07538C5.71408 1.18669 8.25157 0.0887742 10.9213 0.00515195C13.591 -0.0784703 16.1922 0.858486 18.1954 2.62528C20.1986 4.39207 21.4532 6.85587 21.7037 9.51511C21.9543 12.1744 21.1819 14.8291 19.544 16.939L24.4265 21.8215C24.5554 21.9416 24.6588 22.0865 24.7306 22.2475C24.8023 22.4085 24.8409 22.5823 24.844 22.7586C24.8471 22.9348 24.8147 23.1098 24.7487 23.2733C24.6827 23.4367 24.5844 23.5851 24.4598 23.7098C24.3351 23.8344 24.1867 23.9327 24.0233 23.9987C23.8598 24.0647 23.6848 24.0971 23.5086 24.094C23.3323 24.0909 23.1585 24.0523 22.9975 23.9806C22.8365 23.9088 22.6916 23.8054 22.5715 23.6765L17.689 18.794Z" fill="black"/>
</svg>
