<svg width="660" height="415" viewBox="0 0 660 415" fill="none" xmlns="http://www.w3.org/2000/svg">
<path d="M654.464 176.84C662.304 247.791 678.167 347.067 535.804 394.291C458.929 419.792 438.429 394.291 324.804 412.291C185.429 417.792 189.803 412.291 138.804 399.791C87.8041 387.292 51.4287 356.291 23.929 318.29C-8.29166 246.968 2.51031 211.794 0.428243 178.097C14.3037 99.791 32.9291 73.7916 59.429 51.2915C85.929 28.7914 126.428 10.4478 211.428 16.7918C296.429 23.1359 381.429 -5.40888 442.429 2.29048C503.428 9.98984 529.429 9.79012 576.429 47.2901C623.429 84.7901 646.625 105.89 654.464 176.84Z" fill="#A154F2"/>
</svg>
