<svg width="79" height="79" viewBox="0 0 79 79" fill="none" xmlns="http://www.w3.org/2000/svg">
<path fill-rule="evenodd" clip-rule="evenodd" d="M78.8871 8.46429C78.9639 7.52579 79.0016 6.58449 79 5.64286V4.70525e-07H69.125C61.7983 -0.00122061 54.669 2.37424 48.8073 6.76974C42.9456 11.1652 38.6679 17.3436 36.6165 24.3771C33.4544 20.2983 29.4002 16.9976 24.7649 14.7284C20.1295 12.4591 15.036 11.2814 9.87499 11.2857H0V16.9286C0 25.908 3.56708 34.5197 9.91652 40.8692C16.266 47.2186 24.8777 50.7857 33.8571 50.7857H35.2678V74.7679C35.2678 75.8903 35.7137 76.9668 36.5074 77.7604C37.3011 78.5541 38.3775 79 39.5 79C40.6224 79 41.6989 78.5541 42.4925 77.7604C43.2862 76.9668 43.7321 75.8903 43.7321 74.7679V39.5H45.1428C53.6347 39.5012 61.817 36.3113 68.0673 30.5627C74.3176 24.8141 78.1794 16.9267 78.8871 8.46429ZM43.8845 31.0357C44.5786 24.8275 47.5368 19.093 52.1933 14.9288C56.8499 10.7646 62.878 8.46309 69.125 8.46429H70.3833C69.6892 14.6725 66.731 20.407 62.0744 24.5712C57.4179 28.7354 51.3897 31.0369 45.1428 31.0357H43.8845ZM9.87499 19.75C16.1219 19.7488 22.15 22.0504 26.8066 26.2145C31.4632 30.3787 34.4214 36.1132 35.1155 42.3214H33.8571C27.6102 42.3226 21.5821 40.0211 16.9255 35.8569C12.2689 31.6928 9.31074 25.9582 8.61664 19.75H9.87499Z" fill="white"/>
</svg>
