<svg width="86" height="87" viewBox="0 0 86 87" fill="none" xmlns="http://www.w3.org/2000/svg">
<path d="M18.9307 29.6615C18.9307 27.6472 19.7308 25.7154 21.1552 24.2911C22.5795 22.8667 24.5113 22.0665 26.5257 22.0665C26.9318 22.0665 27.3213 21.9052 27.6084 21.618C27.8956 21.3309 28.0569 20.9414 28.0569 20.5353C28.0569 20.1292 27.8956 19.7397 27.6084 19.4525C27.3213 19.1654 26.9318 19.004 26.5257 19.004C23.6991 19.004 20.9883 20.1269 18.9897 22.1255C16.991 24.1242 15.8682 26.835 15.8682 29.6615C15.8682 30.0676 16.0295 30.4571 16.3167 30.7443C16.6038 31.0315 16.9933 31.1928 17.3994 31.1928C17.8055 31.1928 18.195 31.0315 18.4822 30.7443C18.7693 30.4571 18.9307 30.0676 18.9307 29.6615ZM30.51 48.2203C30.077 47.8017 29.4969 47.5699 28.8947 47.5748C28.2924 47.5798 27.7162 47.8211 27.2901 48.2467C26.8641 48.6724 26.6223 49.2484 26.6167 49.8506C26.6112 50.4528 26.8425 51.0331 27.2607 51.4665C29.2571 53.4639 31.6276 55.0483 34.2365 56.1294C36.8455 57.2104 39.6419 57.7668 42.466 57.7668C45.29 57.7668 48.0864 57.2104 50.6954 56.1294C53.3044 55.0483 55.6748 53.4639 57.6713 51.4665C57.897 51.2563 58.078 51.0027 58.2035 50.7209C58.329 50.4392 58.3965 50.135 58.402 49.8266C58.4074 49.5182 58.3507 49.2119 58.2352 48.9259C58.1196 48.6399 57.9477 48.3801 57.7296 48.162C57.5115 47.9439 57.2517 47.7719 56.9657 47.6564C56.6797 47.5409 56.3733 47.4842 56.0649 47.4896C55.7565 47.495 55.4524 47.5625 55.1706 47.6881C54.8889 47.8136 54.6353 47.9946 54.425 48.2203C52.8551 49.7917 50.9908 51.0383 48.9388 51.8888C46.8868 52.7393 44.6873 53.1771 42.466 53.1771C40.2447 53.1771 38.0452 52.7393 35.9932 51.8888C33.9412 51.0383 32.08 49.7917 30.51 48.2203ZM56.7832 20.5353C56.7832 20.1292 56.9445 19.7397 57.2317 19.4525C57.5188 19.1654 57.9083 19.004 58.3144 19.004C61.141 19.004 63.8517 20.1269 65.8504 22.1255C67.8491 24.1242 68.9719 26.835 68.9719 29.6615C68.9719 30.0676 68.8106 30.4571 68.5234 30.7443C68.2363 31.0315 67.8468 31.1928 67.4407 31.1928C67.0346 31.1928 66.6451 31.0315 66.3579 30.7443C66.0707 30.4571 65.9094 30.0676 65.9094 29.6615C65.9094 27.6472 65.1092 25.7154 63.6849 24.2911C62.2606 22.8667 60.3287 22.0665 58.3144 22.0665C57.9083 22.0665 57.5188 21.9052 57.2317 21.618C56.9445 21.3309 56.7832 20.9414 56.7832 20.5353ZM25.4201 35.3731C25.7314 34.588 26.2724 33.9151 26.9724 33.4425C27.6723 32.9698 28.4986 32.7194 29.3432 32.724C31.2052 32.724 32.7946 33.9307 33.3489 35.6181C33.5398 36.1968 33.9527 36.676 34.4969 36.9502C35.0411 37.2245 35.6719 37.2713 36.2506 37.0804C36.8293 36.8896 37.3085 36.4766 37.5828 35.9324C37.857 35.3883 37.9038 34.7574 37.713 34.1787C37.1305 32.4189 36.0083 30.8873 34.5058 29.8015C33.0033 28.7158 31.1969 28.131 29.3432 28.1303C27.5754 28.125 25.8471 28.6529 24.384 29.6451C22.9209 30.6372 21.791 32.0475 21.1418 33.6918C20.9332 34.2557 20.954 34.879 21.1999 35.4278C21.4458 35.9765 21.897 36.4069 22.4567 36.6267C23.0164 36.8464 23.64 36.8379 24.1935 36.6029C24.747 36.3679 25.1863 35.9253 25.417 35.37M55.7419 32.724C54.8972 32.7186 54.0705 32.9682 53.37 33.4403C52.6695 33.9124 52.1278 34.585 51.8158 35.37C51.7122 35.6594 51.5516 35.925 51.3434 36.1512C51.1353 36.3774 50.8839 36.5594 50.6041 36.6867C50.3243 36.8139 50.0218 36.8837 49.7146 36.8919C49.4073 36.9 49.1016 36.8465 48.8154 36.7344C48.5292 36.6222 48.2684 36.4538 48.0485 36.2391C47.8287 36.0243 47.6541 35.7676 47.5352 35.4842C47.4163 35.2007 47.3556 34.8963 47.3565 34.589C47.3574 34.2816 47.42 33.9776 47.5405 33.6948C48.1893 32.05 49.319 30.6391 50.7821 29.6464C52.2453 28.6536 53.9738 28.1253 55.7419 28.1303C59.6405 28.1303 62.951 30.6599 64.1117 34.1818C64.3026 34.7605 64.2558 35.3913 63.9815 35.9355C63.7073 36.4797 63.2281 36.8926 62.6494 37.0835C62.0707 37.2744 61.4398 37.2275 60.8957 36.9533C60.3515 36.6791 59.9385 36.1999 59.7477 35.6212C59.4686 34.7789 58.9315 34.0458 58.2126 33.5258C57.4936 33.0058 56.6292 32.7253 55.7419 32.724Z" fill="white"/>
<path d="M33.9059 5.46778C37.1828 -1.69847 47.289 -1.8516 50.8109 5.19215C52.1278 7.8259 55.374 8.83652 57.9465 7.39715L59.539 6.50903C65.7865 2.95653 73.2896 8.25465 72.0953 15.2984L71.789 17.1053C71.299 20.0147 73.3509 22.7403 76.2909 23.0771L78.0978 23.2915C85.2028 24.1184 88.1734 32.7853 83.059 37.7771L81.7421 39.0634C79.629 41.1153 79.6903 44.5453 81.8646 46.5359L83.2121 47.7609C88.4796 52.5996 85.7846 61.3584 78.7103 62.3997L76.9034 62.6753C73.994 63.104 72.034 65.8909 72.6159 68.8003L72.9834 70.6072C74.3921 77.6203 67.0728 83.1328 60.7334 79.7947L59.1103 78.9371C56.5071 77.559 53.2609 78.6615 52.0359 81.3565C48.759 88.5228 38.6528 88.6759 35.1309 81.6322C34.8196 81.0071 34.3848 80.4518 33.8527 79.9997C33.3206 79.5476 32.7022 79.2082 32.0351 79.0021C31.368 78.7959 30.666 78.7273 29.9716 78.8004C29.2772 78.8734 28.6048 79.0867 27.9953 79.4272L26.4028 80.3153C20.1859 83.8372 12.6828 78.539 13.8771 71.4953L14.1834 69.6884C14.6734 66.779 12.6215 64.0534 9.6815 63.7165L7.87463 63.5022C0.76963 62.6753 -2.201 54.0084 2.91338 49.0165L4.23025 47.7303C6.34338 45.6784 6.28213 42.2484 4.10776 40.2578L2.76025 39.0328C-2.50725 34.194 0.187754 25.4353 7.26213 24.394L9.06901 24.1184C11.9784 23.6896 13.9384 20.9028 13.3565 17.9934L12.989 16.2171C11.5803 9.20403 18.8996 3.69153 25.239 7.02965L26.8621 7.88715C29.4653 9.23465 32.6809 8.13215 33.9059 5.46778ZM42.8484 77.069C61.4561 77.069 76.5359 61.9893 76.5359 43.3815C76.5359 24.7738 61.4561 9.69403 42.8484 9.69403C24.2406 9.69403 9.16088 24.7768 9.16088 43.3815C9.16088 61.9862 24.2437 77.069 42.8484 77.069Z" fill="white"/>
</svg>
