<svg width="70" height="76" viewBox="0 0 70 76" fill="none" xmlns="http://www.w3.org/2000/svg">
<path d="M10.125 0.5V36.3406C4.65625 40.3063 0.75 46.3625 0.75 53.625C0.75 65.6719 10.5781 75.5 22.625 75.5C34.6719 75.5 44.5 65.6719 44.5 53.625C44.5 46.3625 40.5938 40.3063 35.125 36.3406V31.75H41.375V25.5H35.125V19.25H41.375V13H35.125V6.75H41.375V0.5H10.125ZM58.5625 0.5C52.5312 0.5 47.625 5.40625 47.625 11.4375C47.625 17.4688 52.5312 22.375 58.5625 22.375C64.5938 22.375 69.5 17.4688 69.5 11.4375C69.5 5.40625 64.5938 0.5 58.5625 0.5ZM16.375 6.75H28.875V39.2687L30.4375 40.15C35.1125 42.8594 38.25 47.8375 38.25 53.625C38.25 62.2906 31.2906 69.25 22.625 69.25C13.9594 69.25 7 62.2906 7 53.625C7 47.8375 10.1375 42.8594 14.8125 40.1469L16.375 39.2719V6.75ZM58.5625 6.75C61.1469 6.75 63.25 8.85312 63.25 11.4375C63.25 14.0219 61.1469 16.125 58.5625 16.125C55.9781 16.125 53.875 14.0219 53.875 11.4375C53.875 8.85312 55.9781 6.75 58.5625 6.75ZM19.5 38V44.8375C15.875 46.1312 13.25 49.5656 13.25 53.6313C13.3131 56.0757 14.3285 58.3989 16.0798 60.1055C17.8311 61.8122 20.1797 62.7673 22.625 62.7673C25.0703 62.7673 27.4189 61.8122 29.1702 60.1055C30.9215 58.3989 31.9369 56.0757 32 53.6313C32 49.5656 29.375 46.1312 25.75 44.8375V38H19.5Z" fill="white"/>
</svg>
