<svg width="75" height="75" viewBox="0 0 75 75" fill="none" xmlns="http://www.w3.org/2000/svg">
<path d="M13.9836 0.979809C14.6536 0.41541 15.4846 0.0765918 16.3583 0.011514C17.232 -0.0535638 18.1039 0.158411 18.8503 0.617307C33.2503 9.47986 41.142 20.6924 45.3504 33.0342C46.3921 36.0883 47.2046 39.2009 47.8337 42.3509C52.1213 35.1425 58.9713 29.4258 69.288 25.3008C70.0155 25.0103 70.8101 24.9307 71.5807 25.0712C72.3512 25.2117 73.0666 25.5666 73.6447 26.0951C74.2229 26.6236 74.6403 27.3044 74.8492 28.0593C75.058 28.8143 75.0498 29.6128 74.8256 30.3633L74.0714 32.88C68.4047 51.7468 66.6672 57.526 66.6672 70.8344C66.6672 71.9394 66.2282 72.9993 65.4468 73.7807C64.6654 74.5621 63.6056 75.0011 62.5005 75.0011C61.3954 75.0011 60.3356 74.5621 59.5542 73.7807C58.7728 72.9993 58.3338 71.9394 58.3338 70.8344C58.3338 58.1051 59.9172 51.2509 64.0422 37.3258C59.3671 40.4259 56.288 44.0259 54.2213 48.0134C51.0338 54.1551 50.0004 61.6885 50.0004 70.8344C50.0004 71.9394 49.5614 72.9993 48.78 73.7807C47.9986 74.5621 46.9388 75.0011 45.8337 75.0011C44.7287 75.0011 43.6688 74.5621 42.8874 73.7807C42.106 72.9993 41.667 71.9394 41.667 70.8344C41.667 58.3676 41.1254 46.4717 37.4629 35.7217C35.0045 28.5175 31.1212 21.7591 24.8878 15.7132C29.1253 31.7966 29.167 47.3134 29.167 69.7719V70.8344C29.167 71.9394 28.728 72.9993 27.9466 73.7807C27.1652 74.5621 26.1054 75.0011 25.0003 75.0011C23.8952 75.0011 22.8354 74.5621 22.054 73.7807C21.2726 72.9993 20.8336 71.9394 20.8336 70.8344C20.8336 61.2926 20.7919 52.6218 18.4294 45.2926C17.0711 41.0717 14.9294 37.2925 11.4169 34.1508C15.2502 47.2884 16.6669 57.0135 16.6669 70.8344C16.6669 71.9394 16.2279 72.9993 15.4465 73.7807C14.6651 74.5621 13.6053 75.0011 12.5002 75.0011C11.3951 75.0011 10.3353 74.5621 9.55392 73.7807C8.77252 72.9993 8.33352 71.9394 8.33352 70.8344C8.33352 54.7343 6.36685 44.7717 0.212647 26.3175C-0.0378159 25.5638 -0.0676896 24.7543 0.126546 23.9843C0.320781 23.2142 0.731035 22.5157 1.30898 21.9711C1.88693 21.4264 2.6085 21.0582 3.38869 20.9099C4.16888 20.7617 4.9752 20.8394 5.71268 21.1341C11.5252 23.4549 15.9419 26.555 19.2753 30.2175C18.1646 21.8092 15.9888 13.5764 12.8002 5.71734C12.474 4.90358 12.4127 4.00765 12.6252 3.15706C12.8376 2.30647 13.313 1.54458 13.9836 0.979809Z" fill="white"/>
</svg>
