<svg width="31" height="28" viewBox="0 0 31 28" fill="none" xmlns="http://www.w3.org/2000/svg">
<path d="M10.463 27.775C11.7241 27.775 12.7464 26.7527 12.7464 25.4917C12.7464 24.2306 11.7241 23.2083 10.463 23.2083C9.20197 23.2083 8.17969 24.2306 8.17969 25.4917C8.17969 26.7527 9.20197 27.775 10.463 27.775Z" fill="black"/>
<path d="M26.4459 27.775C27.707 27.775 28.7293 26.7527 28.7293 25.4917C28.7293 24.2306 27.707 23.2083 26.4459 23.2083C25.1849 23.2083 24.1626 24.2306 24.1626 25.4917C24.1626 26.7527 25.1849 27.775 26.4459 27.775Z" fill="black"/>
<path d="M30.4987 4.42649C30.3384 4.2303 30.1363 4.07229 29.9072 3.96392C29.6781 3.85556 29.4278 3.79956 29.1744 3.8H7.45778L7.02037 1.3183C6.97373 1.05396 6.83544 0.814495 6.62978 0.641984C6.42413 0.469473 6.16426 0.374944 5.89583 0.375H1.32917C1.02638 0.375 0.73599 0.495283 0.521886 0.709387C0.307782 0.923491 0.1875 1.21388 0.1875 1.51667C0.1875 1.81946 0.307782 2.10984 0.521886 2.32395C0.73599 2.53805 1.02638 2.65833 1.32917 2.65833H4.93826L8.19629 21.1234C8.24293 21.3877 8.38122 21.6272 8.58688 21.7997C8.79254 21.9722 9.0524 22.0667 9.32083 22.0667H27.5875C27.8903 22.0667 28.1807 21.9464 28.3948 21.7323C28.6089 21.5182 28.7292 21.2278 28.7292 20.925C28.7292 20.6222 28.6089 20.3318 28.3948 20.1177C28.1807 19.9036 27.8903 19.7833 27.5875 19.7833H10.2784L9.87597 17.5H27.1194C27.5153 17.4995 27.8989 17.3622 28.2053 17.1114C28.5116 16.8606 28.7219 16.5116 28.8005 16.1236L30.8555 5.84858C30.905 5.59991 30.8987 5.34335 30.837 5.09742C30.7753 4.85149 30.6598 4.62233 30.4987 4.42649Z" fill="black"/>
</svg>
