<svg width="35" height="35" viewBox="0 0 35 35" fill="none" xmlns="http://www.w3.org/2000/svg">
<path d="M12.0312 30.625C13.2394 30.625 14.2188 29.6456 14.2188 28.4375C14.2188 27.2294 13.2394 26.25 12.0312 26.25C10.8231 26.25 9.84375 27.2294 9.84375 28.4375C9.84375 29.6456 10.8231 30.625 12.0312 30.625Z" fill="black"/>
<path d="M27.3438 30.625C28.5519 30.625 29.5312 29.6456 29.5312 28.4375C29.5312 27.2294 28.5519 26.25 27.3438 26.25C26.1356 26.25 25.1562 27.2294 25.1562 28.4375C25.1562 29.6456 26.1356 30.625 27.3438 30.625Z" fill="black"/>
<path d="M31.2266 8.25645C31.0729 8.06849 30.8793 7.91711 30.6599 7.81329C30.4404 7.70948 30.2006 7.65583 29.9578 7.65625H9.15264L8.73359 5.27871C8.68891 5.02546 8.55642 4.79605 8.3594 4.63078C8.16237 4.46551 7.91341 4.37495 7.65625 4.375H3.28125C2.99117 4.375 2.71297 4.49023 2.50785 4.69535C2.30273 4.90047 2.1875 5.17867 2.1875 5.46875C2.1875 5.75883 2.30273 6.03703 2.50785 6.24215C2.71297 6.44727 2.99117 6.5625 3.28125 6.5625H6.73887L9.86016 24.2525C9.90484 24.5058 10.0373 24.7352 10.2344 24.9005C10.4314 25.0657 10.6803 25.1563 10.9375 25.1562H28.4375C28.7276 25.1562 29.0058 25.041 29.2109 24.8359C29.416 24.6308 29.5312 24.3526 29.5312 24.0625C29.5312 23.7724 29.416 23.4942 29.2109 23.2891C29.0058 23.084 28.7276 22.9688 28.4375 22.9688H11.8549L11.4693 20.7812H27.9891C28.3684 20.7808 28.7359 20.6493 29.0293 20.409C29.3228 20.1687 29.5243 19.8344 29.5996 19.4626L31.5684 9.61885C31.6158 9.38062 31.6097 9.13482 31.5506 8.89922C31.4915 8.66361 31.3808 8.44407 31.2266 8.25645Z" fill="black"/>
</svg>
