<svg width="26" height="26" viewBox="0 0 26 26" fill="none" xmlns="http://www.w3.org/2000/svg">
<path fill-rule="evenodd" clip-rule="evenodd" d="M19.8273 11.3294C19.8273 12.4454 19.6075 13.5504 19.1804 14.5814C18.7534 15.6124 18.1274 16.5492 17.3383 17.3383C16.5492 18.1274 15.6124 18.7534 14.5814 19.1804C13.5504 19.6075 12.4454 19.8273 11.3294 19.8273C10.2134 19.8273 9.10842 19.6075 8.07741 19.1804C7.04639 18.7534 6.10959 18.1274 5.32049 17.3383C4.53139 16.5492 3.90544 15.6124 3.47838 14.5814C3.05132 13.5504 2.83152 12.4454 2.83152 11.3294C2.83152 9.07563 3.72683 6.91415 5.32049 5.32049C6.91415 3.72683 9.07563 2.83152 11.3294 2.83152C13.5832 2.83152 15.7447 3.72683 17.3383 5.32049C18.932 6.91415 19.8273 9.07563 19.8273 11.3294ZM18.2788 20.2805C16.0021 22.048 13.1373 22.8815 10.2677 22.6111C7.39816 22.3407 4.73947 20.9869 2.83293 18.8253C0.92639 16.6637 -0.0846771 13.8567 0.00555946 10.9758C0.095796 8.09493 1.28055 5.35673 3.31864 3.31864C5.35673 1.28055 8.09493 0.095796 10.9758 0.00555946C13.8567 -0.0846771 16.6637 0.92639 18.8253 2.83293C20.9869 4.73947 22.3407 7.39816 22.6111 10.2677C22.8815 13.1373 22.048 16.0021 20.2805 18.2788L25.5492 23.5475C25.6884 23.6772 25.8 23.8335 25.8774 24.0072C25.9548 24.181 25.9964 24.3685 25.9998 24.5587C26.0031 24.7489 25.9682 24.9378 25.8969 25.1141C25.8257 25.2905 25.7197 25.4507 25.5852 25.5852C25.4507 25.7197 25.2905 25.8257 25.1141 25.8969C24.9378 25.9682 24.7489 26.0031 24.5587 25.9998C24.3685 25.9964 24.181 25.9548 24.0072 25.8774C23.8335 25.8 23.6772 25.6884 23.5475 25.5492L18.2788 20.2805Z" fill="black"/>
</svg>
