<svg width="28" height="28" viewBox="0 0 28 28" fill="none" xmlns="http://www.w3.org/2000/svg">
<path fill-rule="evenodd" clip-rule="evenodd" d="M20.1249 12.499C20.1249 13.5331 19.9212 14.5572 19.5255 15.5126C19.1297 16.468 18.5497 17.3362 17.8184 18.0674C17.0871 18.7987 16.219 19.3788 15.2636 19.7745C14.3081 20.1703 13.2841 20.374 12.2499 20.374C11.2158 20.374 10.1917 20.1703 9.23631 19.7745C8.28087 19.3788 7.41274 18.7987 6.68148 18.0674C5.95021 17.3362 5.37015 16.468 4.97439 15.5126C4.57864 14.5572 4.37494 13.5331 4.37494 12.499C4.37494 10.4104 5.20463 8.40735 6.68148 6.9305C8.15833 5.45365 10.1614 4.62397 12.2499 4.62397C14.3385 4.62397 16.3416 5.45365 17.8184 6.9305C19.2953 8.40735 20.1249 10.4104 20.1249 12.499ZM18.6899 20.794C16.5801 22.4319 13.9253 23.2043 11.2661 22.9537C8.60685 22.7032 6.14305 21.4486 4.37625 19.4454C2.60946 17.4422 1.67251 14.841 1.75613 12.1713C1.83975 9.50157 2.93766 6.96408 4.82636 5.07538C6.71506 3.18669 9.25255 2.08877 11.9223 2.00515C14.592 1.92153 17.1932 2.85849 19.1964 4.62528C21.1996 6.39207 22.4541 8.85587 22.7047 11.5151C22.9552 14.1744 22.1829 16.8291 20.5449 18.939L25.4274 23.8215C25.5564 23.9416 25.6598 24.0865 25.7316 24.2475C25.8033 24.4085 25.8419 24.5823 25.845 24.7586C25.8481 24.9348 25.8157 25.1098 25.7497 25.2733C25.6836 25.4367 25.5854 25.5851 25.4608 25.7098C25.3361 25.8344 25.1877 25.9327 25.0242 25.9987C24.8608 26.0647 24.6858 26.0971 24.5095 26.094C24.3333 26.0909 24.1595 26.0523 23.9985 25.9806C23.8375 25.9088 23.6926 25.8054 23.5724 25.6765L18.6899 20.794Z" fill="black"/>
</svg>
