<svg width="31" height="31" viewBox="0 0 31 31" fill="none" xmlns="http://www.w3.org/2000/svg">
<path d="M15.5 12.9167C16.0937 12.9167 16.6816 12.7997 17.23 12.5725C17.7785 12.3453 18.2769 12.0123 18.6967 11.5925C19.1165 11.1727 19.4495 10.6744 19.6767 10.1259C19.9039 9.57739 20.0208 8.98952 20.0208 8.39583C20.0208 7.80215 19.9039 7.21428 19.6767 6.66579C19.4495 6.11729 19.1165 5.61892 18.6967 5.19912C18.2769 4.77932 17.7785 4.44632 17.23 4.21913C16.6816 3.99193 16.0937 3.875 15.5 3.875C14.301 3.875 13.1511 4.3513 12.3033 5.19912C11.4555 6.04694 10.9792 7.19683 10.9792 8.39583C10.9792 9.59483 11.4555 10.7447 12.3033 11.5925C13.1511 12.4404 14.301 12.9167 15.5 12.9167ZM3.875 26.35V27.125H27.125V26.35C27.125 23.4567 27.125 22.01 26.5618 20.9043C26.0665 19.9322 25.2761 19.1418 24.304 18.6465C23.1983 18.0833 21.7517 18.0833 18.8583 18.0833H12.1417C9.24833 18.0833 7.80167 18.0833 6.696 18.6465C5.72387 19.1418 4.93351 19.9322 4.43817 20.9043C3.875 22.01 3.875 23.4567 3.875 26.35Z" fill="black" stroke="black" stroke-width="2" stroke-linecap="round" stroke-linejoin="round"/>
</svg>
