<svg width="28" height="28" viewBox="0 0 28 28" fill="none" xmlns="http://www.w3.org/2000/svg">
<path d="M13.75 10.9167C14.4011 10.9167 15.0459 10.7884 15.6475 10.5392C16.249 10.2901 16.7956 9.92483 17.2561 9.4644C17.7165 9.00398 18.0817 8.45738 18.3309 7.85581C18.5801 7.25423 18.7083 6.60947 18.7083 5.95833C18.7083 5.3072 18.5801 4.66243 18.3309 4.06086C18.0817 3.45929 17.7165 2.91269 17.2561 2.45226C16.7956 1.99184 16.249 1.62661 15.6475 1.37743C15.0459 1.12825 14.4011 1 13.75 1C12.435 1 11.1738 1.52239 10.2439 2.45226C9.31406 3.38213 8.79167 4.6433 8.79167 5.95833C8.79167 7.27336 9.31406 8.53454 10.2439 9.4644C11.1738 10.3943 12.435 10.9167 13.75 10.9167ZM1 25.65V26.5H26.5V25.65C26.5 22.4767 26.5 20.89 25.8823 19.6773C25.3391 18.6111 24.4722 17.7443 23.406 17.201C22.1933 16.5833 20.6067 16.5833 17.4333 16.5833H10.0667C6.89333 16.5833 5.30667 16.5833 4.094 17.201C3.0278 17.7443 2.16094 18.6111 1.61767 19.6773C1 20.89 1 22.4767 1 25.65Z" fill="black" stroke="black" stroke-width="2" stroke-linecap="round" stroke-linejoin="round"/>
</svg>
