<svg width="170" height="74" viewBox="0 0 170 74" fill="none" xmlns="http://www.w3.org/2000/svg">
<path d="M48.0701 41.1021C48.4747 43.4843 48.4179 45.922 47.9027 48.2827C46.5379 54.5105 42.2476 59.427 36.2158 61.5219C27.1647 64.6701 15.1713 58.8593 12.0248 49.8032C9.79927 43.403 12.7281 36.7582 17.566 32.4244C22.7789 27.749 29.5509 25.7931 36.3029 28.0136C38.4497 28.7149 40.4662 29.7656 42.2711 31.1233C45.4863 33.5581 47.4036 37.207 48.0701 41.1021Z" fill="#FE7615"/>
<path d="M33.816 50.1298C35.025 59.1441 26.7442 69.7559 17.601 68.9169C7.32916 67.9741 1.34086 64.0422 0.130135 55.028C-1.08059 46.0137 6.32273 36.425 15.4258 35.1976C26.545 33.7156 32.6086 41.1139 33.816 50.1298Z" fill="#FFD115"/>
<path d="M49.117 61.2037C46.6487 71.4689 38.5202 74.9437 30.0151 72.899C27.993 72.4128 26.0865 71.5331 24.4044 70.3101C22.7223 69.0871 21.2976 67.5447 20.2116 65.7711C19.1256 63.9975 18.3995 62.0273 18.0749 59.9731C17.7503 57.9188 17.8335 55.8208 18.3198 53.7987C20.3644 45.2936 28.5632 41.5241 37.0751 43.5687C45.587 45.6134 51.1617 52.6985 49.117 61.2037Z" fill="#FF9898"/>
<path d="M55.7948 31.8234C57.3658 34.8753 58.3093 38.2111 58.5696 41.6337C58.8299 45.0564 58.4017 48.4965 57.3103 51.7509C53.1607 64.2768 39.816 72.159 26.2318 70.1177C9.97828 67.6845 -0.456031 52.682 3.14264 37.6124C4.16916 33.3188 6.89538 29.5895 10.3249 26.7109C13.4091 24.1398 16.9242 22.1351 20.7073 20.7896C22.1226 20.2644 23.5695 19.8287 25.0395 19.4851C24.2842 22.0656 24.3261 24.966 25.3995 27.4427C25.9476 28.7034 26.7387 29.8437 27.7277 30.7986C28.7167 31.7534 29.8842 32.5039 31.1634 33.0073C33.7657 34.0121 36.857 33.8446 39.255 32.448C41.6747 31.038 43.2572 28.4005 43.3075 25.6928C43.3577 22.985 41.8656 20.2939 39.5062 18.8019C37.7897 17.7201 35.6948 17.2663 33.6451 17.2947C30.6208 17.3265 27.7556 18.3095 25.0378 19.4901" stroke="#300000" stroke-width="1.71812" stroke-miterlimit="10" stroke-linecap="round"/>
<path d="M25.0327 19.485C25.0327 19.485 29.1656 -1.83913 36.6024 1.31913C44.0392 4.47738 36.6024 14.7459 25.0327 19.485Z" stroke="#300000" stroke-width="1.60257" stroke-miterlimit="10"/>
<path d="M82.8469 24.743C82.8294 24.9004 82.7595 25.0402 82.6372 25.1626C82.5148 25.2675 82.305 25.3461 82.0078 25.3986V31.8493C82.0078 31.8493 81.9291 31.8493 81.7718 31.8493C81.6145 31.8493 81.4222 31.8493 81.1949 31.8493C80.9677 31.8493 80.7317 31.8493 80.4869 31.8493H79.9363V24.4021L82.8469 24.743ZM75.3736 30.5119L77.6287 31.4822H84.4465L85.4429 30.1448L87.9603 32.0328C87.8554 32.1552 87.7068 32.2513 87.5145 32.3213C87.3397 32.3912 87.0949 32.4524 86.7803 32.5048V46.7435H84.7087V32.2426H77.3665V46.7435H75.3736V31.4822V30.5119ZM87.8029 44.6457C87.8029 44.6457 87.9166 44.7594 88.1438 44.9866C88.3711 45.1964 88.6333 45.4499 88.9305 45.7471C89.2452 46.0442 89.5249 46.3414 89.7696 46.6386C89.6997 46.9183 89.4724 47.0582 89.0878 47.0582H72.4629L72.2531 46.2715H86.7278L87.8029 44.6457ZM85.6003 42.5217V43.3084H76.4749V42.5217H85.6003ZM85.6265 38.7457V39.5062H76.4225V38.7457H85.6265ZM85.6789 35.1008V35.8613H76.3963V35.1008H85.6789ZM86.8589 26.1853C86.8589 26.1853 86.9376 26.2464 87.0949 26.3688C87.2523 26.4912 87.4446 26.6573 87.6718 26.867C87.9166 27.0593 88.17 27.2691 88.4323 27.4964C88.712 27.7061 88.9567 27.9159 89.1665 28.1257C89.0966 28.4054 88.8693 28.5453 88.4847 28.5453H73.8789L73.6691 27.7848H85.6265L86.8589 26.1853ZM70.8109 33.1079C71.6675 33.475 72.358 33.8684 72.8825 34.2879C73.4069 34.69 73.774 35.0921 73.9838 35.4942C74.2111 35.8962 74.3247 36.2633 74.3247 36.5955C74.3422 36.9276 74.2635 37.1986 74.0887 37.4084C73.9314 37.6007 73.7216 37.7056 73.4594 37.7231C73.2146 37.7405 72.9437 37.6356 72.6465 37.4084C72.5765 36.9539 72.4192 36.4819 72.1745 35.9924C71.9472 35.4854 71.685 34.9959 71.3878 34.5239C71.0906 34.0519 70.7934 33.6411 70.4962 33.2915L70.8109 33.1079ZM71.8336 24.5595C71.8161 24.7518 71.7374 24.9091 71.5976 25.0315C71.4752 25.1538 71.2392 25.2413 70.8896 25.2937V47.7924C70.8896 47.8798 70.8022 47.9847 70.6274 48.1071C70.47 48.2294 70.269 48.3343 70.0242 48.4217C69.7795 48.5266 69.5348 48.5791 69.29 48.5791H68.8705V24.2448L71.8336 24.5595ZM70.6536 30.9839C70.2165 33.2041 69.5522 35.3019 68.6607 37.2773C67.7866 39.2352 66.6416 41.0008 65.2256 42.5742L64.8585 42.2595C65.5228 41.1582 66.0909 39.9694 66.5629 38.6933C67.0524 37.4171 67.4632 36.0885 67.7954 34.7075C68.145 33.3265 68.4159 31.9454 68.6082 30.5644H70.6536V30.9839ZM73.0136 28.9386C73.0136 28.9386 73.136 29.0435 73.3807 29.2533C73.6429 29.463 73.9401 29.7253 74.2723 30.0399C74.6219 30.3371 74.9278 30.6256 75.19 30.9053C75.1551 31.0451 75.0764 31.15 74.954 31.2199C74.8317 31.2899 74.6831 31.3248 74.5083 31.3248H65.4353L65.2256 30.5644H71.8598L73.0136 28.9386ZM93.5194 27.575V26.867L95.8794 27.8373H95.5123V33.5799C95.5123 34.6288 95.4773 35.7739 95.4074 37.0151C95.3375 38.2388 95.1801 39.4974 94.9354 40.7911C94.7081 42.0672 94.3323 43.3171 93.8078 44.5408C93.2834 45.7471 92.5666 46.8659 91.6576 47.8973L91.2905 47.6351C91.9898 46.2365 92.488 44.7419 92.7852 43.1511C93.0998 41.5602 93.3009 39.9519 93.3883 38.3262C93.4757 36.7004 93.5194 35.1183 93.5194 33.5799V27.8373V27.575ZM113.737 26.3426C113.737 26.3426 113.85 26.4475 114.078 26.6573C114.305 26.8496 114.567 27.0943 114.864 27.3915C115.179 27.6712 115.459 27.9421 115.703 28.2044C115.651 28.4841 115.432 28.6239 115.048 28.6239H94.6207V27.8373H112.635L113.737 26.3426ZM102.959 33.9733L103.956 32.8982L106.185 34.5502C106.115 34.6376 105.984 34.7337 105.791 34.8386C105.599 34.926 105.389 34.9872 105.162 35.0222V38.7719C105.162 38.8244 105.066 38.8943 104.874 38.9817C104.681 39.0691 104.463 39.1565 104.218 39.2439C103.973 39.3139 103.746 39.3488 103.536 39.3488H103.222V33.9733H102.959ZM103.851 37.5657V38.3262H97.9772V37.5657H103.851ZM99.0261 39.2964C99.0261 39.3488 98.9387 39.4275 98.7638 39.5324C98.6065 39.6198 98.4055 39.7072 98.1607 39.7946C97.916 39.8645 97.6625 39.8995 97.4003 39.8995H97.1118V33.9733V33.1079L99.1309 33.9733H104.113V34.7337H99.0261V39.2964ZM109.882 24.6119C109.865 24.7693 109.786 24.9178 109.646 25.0577C109.524 25.1801 109.288 25.2675 108.938 25.3199C108.921 27.1205 108.964 28.9473 109.069 30.8004C109.192 32.6534 109.41 34.4453 109.725 36.1759C110.057 37.9066 110.52 39.5149 111.115 41.0008C111.726 42.4693 112.504 43.7367 113.448 44.8031C113.623 45.0303 113.754 45.144 113.842 45.144C113.947 45.1265 114.06 44.9866 114.183 44.7244C114.34 44.4097 114.523 43.9727 114.733 43.4133C114.96 42.8364 115.153 42.2945 115.31 41.7875L115.651 41.8399L115.153 46.0093C115.502 46.6386 115.703 47.1106 115.756 47.4253C115.826 47.7574 115.782 47.9934 115.625 48.1333C115.328 48.378 114.969 48.448 114.55 48.3431C114.148 48.2557 113.728 48.0546 113.291 47.74C112.871 47.4253 112.513 47.0757 112.216 46.6911C111.149 45.3974 110.267 43.9377 109.567 42.3119C108.886 40.6687 108.352 38.8856 107.968 36.9626C107.583 35.0222 107.312 32.9856 107.155 30.8528C106.998 28.7201 106.919 26.5261 106.919 24.271L109.882 24.6119ZM103.877 29.463C103.877 29.463 104 29.5592 104.244 29.7515C104.489 29.9438 104.777 30.1798 105.11 30.4595C105.459 30.7392 105.774 31.0189 106.054 31.2986C105.984 31.5783 105.756 31.7182 105.372 31.7182H96.7185L96.5087 30.9315H102.697L103.877 29.463ZM114.759 31.3248C114.689 31.4647 114.567 31.5783 114.392 31.6657C114.217 31.7531 113.981 31.7793 113.684 31.7444C113.003 33.3876 112.172 34.8124 111.193 36.0186C110.232 37.2248 109.157 38.2475 107.968 39.0866C106.779 39.9082 105.503 40.5813 104.139 41.1057L103.851 40.7648C105.022 40.1005 106.124 39.2614 107.155 38.2475C108.204 37.2161 109.13 36.0273 109.935 34.6813C110.756 33.3352 111.412 31.8318 111.901 30.171L114.759 31.3248ZM110.171 24.4546C111.027 24.6119 111.674 24.8392 112.111 25.1364C112.548 25.4161 112.819 25.7045 112.924 26.0017C113.029 26.2989 113.02 26.5611 112.898 26.7884C112.793 27.0156 112.6 27.1642 112.321 27.2341C112.059 27.2866 111.788 27.1992 111.508 26.9719C111.403 26.5699 111.193 26.1503 110.879 25.7133C110.564 25.2762 110.24 24.9266 109.908 24.6644L110.171 24.4546ZM100.154 40.8435C100.101 41.1931 99.8477 41.3942 99.3932 41.4466V45.9044C99.3932 46.0617 99.4369 46.1666 99.5243 46.2191C99.6117 46.2715 99.8215 46.2977 100.154 46.2977H101.989C102.391 46.2977 102.741 46.2977 103.038 46.2977C103.353 46.2977 103.563 46.289 103.667 46.2715C103.877 46.2715 104.026 46.1754 104.113 45.9831C104.201 45.8082 104.305 45.4674 104.428 44.9604C104.568 44.4359 104.699 43.8591 104.821 43.2297H105.162L105.241 46.0617C105.503 46.1491 105.669 46.254 105.739 46.3764C105.826 46.4988 105.87 46.6474 105.87 46.8222C105.87 47.0669 105.756 47.268 105.529 47.4253C105.319 47.6001 104.935 47.7312 104.375 47.8186C103.816 47.906 102.994 47.9497 101.911 47.9497H99.7603C99.1834 47.9497 98.7376 47.8973 98.4229 47.7924C98.1258 47.705 97.9247 47.5389 97.8198 47.2942C97.7324 47.0494 97.6887 46.7348 97.6887 46.3502V40.5551L100.154 40.8435ZM96.2465 41.6039C96.6136 42.8277 96.736 43.8853 96.6136 44.7768C96.5087 45.6684 96.2989 46.3152 95.9843 46.7173C95.8269 46.8921 95.6346 47.0232 95.4074 47.1106C95.1801 47.2155 94.9616 47.2505 94.7518 47.2155C94.5421 47.1805 94.3672 47.0757 94.2274 46.9008C94.0875 46.6561 94.0701 46.3939 94.1749 46.1142C94.2798 45.8345 94.4546 45.5985 94.6994 45.4062C94.9092 45.1789 95.1015 44.8642 95.2763 44.4622C95.4511 44.0426 95.5822 43.5794 95.6696 43.0724C95.7745 42.5654 95.8095 42.0759 95.7745 41.6039H96.2465ZM105.529 41.1844C106.473 41.7613 107.181 42.3469 107.653 42.9413C108.143 43.5357 108.449 44.0951 108.571 44.6195C108.693 45.144 108.685 45.581 108.545 45.9306C108.405 46.2628 108.186 46.4638 107.889 46.5337C107.609 46.6037 107.312 46.49 106.998 46.1928C106.98 45.6684 106.875 45.1177 106.683 44.5408C106.508 43.9465 106.281 43.3696 106.001 42.8102C105.739 42.2508 105.468 41.7613 105.188 41.3417L105.529 41.1844ZM100.363 39.7159C101.325 40.153 102.05 40.625 102.54 41.1319C103.029 41.6214 103.344 42.0847 103.484 42.5217C103.624 42.9588 103.632 43.3346 103.51 43.6493C103.405 43.9465 103.213 44.13 102.933 44.1999C102.671 44.2699 102.383 44.1737 102.068 43.9115C102.033 43.4745 101.911 43.0112 101.701 42.5217C101.491 42.0148 101.237 41.534 100.94 41.0795C100.643 40.625 100.346 40.2316 100.049 39.8995L100.363 39.7159ZM128.316 26.4213H138.412L139.697 24.8217C139.697 24.8217 139.828 24.9266 140.09 25.1364C140.352 25.3461 140.667 25.5996 141.034 25.8968C141.419 26.194 141.76 26.4824 142.057 26.7621C141.987 27.0419 141.76 27.1817 141.375 27.1817H128.526L128.316 26.4213ZM128.474 40.0044H138.307L139.461 38.4835C139.461 38.4835 139.583 38.5884 139.828 38.7982C140.073 38.9905 140.361 39.2352 140.693 39.5324C141.025 39.8121 141.323 40.0743 141.585 40.3191C141.515 40.5988 141.288 40.7386 140.903 40.7386H128.683L128.474 40.0044ZM127.058 46.9533H138.491L139.828 45.1964C139.828 45.1964 139.907 45.2663 140.064 45.4062C140.239 45.546 140.448 45.7208 140.693 45.9306C140.938 46.1404 141.191 46.3589 141.454 46.5862C141.733 46.8309 141.996 47.0669 142.24 47.2942C142.17 47.5564 141.934 47.6875 141.532 47.6875H127.267L127.058 46.9533ZM133.43 40.0044H135.58V47.4253H133.43V40.0044ZM130.493 28.0733L133.22 28.8862C133.098 29.1833 132.827 29.3057 132.407 29.2533C132.215 29.4805 131.926 29.8389 131.542 30.3284C131.157 30.8004 130.755 31.2899 130.335 31.7968C129.916 32.3038 129.531 32.7496 129.182 33.1342C130.073 33.6586 130.764 34.183 131.253 34.7075C131.76 35.2145 132.11 35.7039 132.302 36.1759C132.512 36.6305 132.591 37.05 132.538 37.4346C132.503 37.8017 132.39 38.0989 132.197 38.3262C132.005 38.5359 131.769 38.6496 131.489 38.6671C131.227 38.6845 130.965 38.5884 130.703 38.3786C130.668 37.9241 130.554 37.3996 130.362 36.8053C130.187 36.1934 129.942 35.5728 129.627 34.9435C129.33 34.2967 128.963 33.7198 128.526 33.2128C128.771 32.7059 129.024 32.1202 129.287 31.4559C129.566 30.7742 129.82 30.1186 130.047 29.4893C130.274 28.8599 130.423 28.3879 130.493 28.0733ZM134.479 28.2044L137.179 29.0697C137.057 29.3494 136.795 29.4543 136.393 29.3844C136.183 29.6291 135.877 29.9787 135.475 30.4333C135.09 30.8878 134.671 31.3598 134.216 31.8493C133.779 32.3387 133.386 32.767 133.036 33.1342C133.963 33.6062 134.688 34.0956 135.213 34.6026C135.755 35.0921 136.131 35.5641 136.34 36.0186C136.55 36.4556 136.646 36.8577 136.629 37.2248C136.611 37.5919 136.506 37.8891 136.314 38.1164C136.122 38.3436 135.886 38.4748 135.606 38.5097C135.344 38.5272 135.073 38.4311 134.793 38.2213C134.741 37.7668 134.61 37.2423 134.4 36.6479C134.19 36.0536 133.91 35.4505 133.561 34.8386C133.211 34.2268 132.809 33.6848 132.355 33.2128C132.599 32.7233 132.862 32.1465 133.141 31.4822C133.438 30.8179 133.709 30.1885 133.954 29.5942C134.216 28.9823 134.391 28.519 134.479 28.2044ZM138.491 28.283L141.218 29.1746C141.095 29.4368 140.833 29.533 140.431 29.463C140.221 29.6903 139.915 30.0224 139.513 30.4595C139.129 30.8965 138.709 31.351 138.255 31.823C137.818 32.295 137.415 32.7059 137.048 33.0555C137.992 33.4925 138.744 33.947 139.303 34.419C139.863 34.891 140.256 35.3456 140.483 35.7826C140.728 36.2196 140.842 36.6217 140.824 36.9888C140.824 37.3559 140.728 37.6531 140.536 37.8804C140.361 38.0902 140.134 38.2125 139.854 38.2475C139.592 38.2825 139.321 38.2038 139.041 38.0115C138.954 37.557 138.788 37.0413 138.543 36.4644C138.316 35.87 138.019 35.2844 137.651 34.7075C137.284 34.1131 136.856 33.5887 136.367 33.1342C136.611 32.6622 136.874 32.1115 137.153 31.4822C137.45 30.8353 137.721 30.2235 137.966 29.6466C138.211 29.0522 138.386 28.5977 138.491 28.283ZM117.749 28.0208H125.668L126.9 26.4213C126.9 26.4213 127.023 26.5261 127.267 26.7359C127.53 26.9282 127.836 27.1817 128.185 27.4964C128.552 27.7936 128.876 28.0733 129.155 28.3355C129.103 28.6152 128.876 28.755 128.474 28.755H117.959L117.749 28.0208ZM119.689 34.7337H126.691V35.4942H119.689V34.7337ZM119.689 38.5097H126.691V39.2439H119.689V38.5097ZM117.644 42.4168H125.773L127.005 40.8435C127.005 40.8435 127.136 40.9484 127.399 41.1582C127.661 41.3679 127.967 41.6214 128.316 41.9186C128.683 42.2158 129.016 42.4955 129.313 42.7577C129.26 43.0374 129.033 43.1773 128.631 43.1773H117.854L117.644 42.4168ZM122.259 31.3248H123.963V38.9555L123.727 38.9817L124.095 39.0079V47.9235C124.095 47.9934 123.946 48.1071 123.649 48.2644C123.369 48.4392 122.976 48.5266 122.469 48.5266H122.128V39.0079L122.521 38.9817L122.259 38.9555V31.3248ZM122.128 24.3497L124.96 24.6119C124.942 24.7867 124.872 24.9353 124.75 25.0577C124.628 25.1626 124.409 25.2413 124.095 25.2937V31.587H122.128V24.3497ZM118.693 31.0364V30.1973L120.581 31.0364H126.402V31.7968H120.45V40.2142C120.45 40.2666 120.371 40.3453 120.214 40.4502C120.074 40.5376 119.89 40.6162 119.663 40.6862C119.453 40.7561 119.226 40.7911 118.981 40.7911H118.693V31.0364ZM125.799 31.0364H125.563L126.533 29.9875L128.579 31.5608C128.509 31.6482 128.386 31.7444 128.211 31.8493C128.037 31.9367 127.827 32.0066 127.582 32.059V39.8471C127.582 39.917 127.495 40.0044 127.32 40.1093C127.163 40.2142 126.962 40.3103 126.717 40.3977C126.49 40.4851 126.271 40.5288 126.061 40.5288H125.799V31.0364ZM157.003 25.1101C157.51 25.8793 158.183 26.6048 159.023 27.2866C159.862 27.9509 160.788 28.554 161.802 29.0959C162.816 29.6379 163.865 30.1099 164.949 30.5119C166.033 30.8965 167.09 31.2024 168.122 31.4297L168.043 31.7444C167.589 31.8842 167.195 32.1027 166.863 32.3999C166.548 32.6796 166.356 33.0293 166.286 33.4488C164.958 32.9419 163.673 32.295 162.431 31.5084C161.208 30.7217 160.089 29.8127 159.075 28.7813C158.061 27.7499 157.213 26.6398 156.531 25.451L157.003 25.1101ZM157.213 25.3724C156.287 26.4737 155.159 27.5925 153.831 28.7288C152.519 29.8476 151.051 30.8965 149.425 31.8755C147.817 32.837 146.06 33.6411 144.155 34.2879L143.945 33.9208C145.606 33.0992 147.161 32.129 148.612 31.0102C150.063 29.8913 151.357 28.7288 152.493 27.5226C153.63 26.2989 154.521 25.1276 155.168 24.0088L158.419 24.9266C158.367 25.0664 158.245 25.1801 158.052 25.2675C157.878 25.3374 157.598 25.3724 157.213 25.3724ZM153.332 41.3679C155.64 41.8749 157.563 42.3994 159.101 42.9413C160.657 43.4657 161.898 43.9902 162.825 44.5146C163.751 45.0216 164.424 45.5111 164.844 45.9831C165.281 46.4376 165.526 46.8309 165.578 47.1631C165.631 47.4952 165.561 47.7574 165.368 47.9497C165.176 48.142 164.914 48.2382 164.582 48.2382C164.25 48.2382 163.909 48.1071 163.559 47.8448C162.895 47.233 162.056 46.5862 161.042 45.9044C160.028 45.2051 158.857 44.5059 157.528 43.8066C156.217 43.1074 154.766 42.4431 153.175 41.8137L153.332 41.3679ZM158.183 28.9124C158.183 28.9124 158.297 29.0173 158.524 29.227C158.769 29.4193 159.058 29.6553 159.39 29.935C159.739 30.2147 160.037 30.4944 160.281 30.7742C160.211 31.0539 159.984 31.1937 159.599 31.1937H152.336L152.126 30.407H157.03L158.183 28.9124ZM161.907 33.2128V33.9733H149.923V33.2128H161.907ZM150.789 35.6253H148.743V34.5764V32.3475L148.848 32.2688L151.13 33.2128H150.789V35.6253ZM148.324 46.3502C148.761 46.2453 149.382 46.088 150.186 45.8782C150.99 45.6509 151.899 45.3887 152.913 45.0915C153.944 44.7943 154.993 44.4797 156.059 44.1475L156.191 44.5146C155.701 44.7768 155.08 45.1177 154.329 45.5373C153.595 45.9568 152.773 46.4114 151.864 46.9008C150.972 47.3903 150.037 47.8885 149.058 48.3955L148.324 46.3502ZM150.291 33.947L150.789 34.2617V46.2977L148.796 47.1368L149.451 46.3502C149.714 46.962 149.757 47.469 149.583 47.8711C149.408 48.2731 149.224 48.5441 149.032 48.684L147.59 46.7173C148.079 46.3851 148.394 46.1404 148.534 45.9831C148.674 45.8082 148.743 45.5985 148.743 45.3537V33.947H150.291ZM165.893 41.7875C165.788 41.9099 165.666 41.9885 165.526 42.0235C165.386 42.0585 165.176 42.041 164.896 41.9711C164.459 42.2158 163.935 42.478 163.323 42.7577C162.729 43.0374 162.099 43.2997 161.435 43.5444C160.771 43.7891 160.124 44.0077 159.495 44.1999L159.232 43.8853C159.722 43.5357 160.229 43.1336 160.753 42.6791C161.278 42.2245 161.767 41.77 162.222 41.3155C162.676 40.8435 163.052 40.4327 163.349 40.0831L165.893 41.7875ZM160.648 33.2128L161.697 32.0853L163.926 33.7897C163.856 33.8596 163.734 33.9383 163.559 34.0257C163.402 34.1131 163.218 34.1743 163.008 34.2093V40.6862C163.008 40.7561 162.912 40.8522 162.72 40.9746C162.528 41.097 162.292 41.2106 162.012 41.3155C161.75 41.4029 161.487 41.4466 161.225 41.4466H160.884V33.2128H160.648ZM161.986 39.7159V40.4764H149.95V39.7159H161.986ZM161.959 36.4119V37.1724H149.95V36.4119H161.959Z" fill="black"/>
<path d="M66.0278 59.5099V59.2299L67.3104 59.1125H67.5904L68.9181 59.2299V59.5099H66.0278ZM66.922 59.5099C66.934 59.0041 66.94 58.4953 66.94 57.9834C66.9461 57.4716 66.9491 56.9598 66.9491 56.448V55.9692C66.9491 55.4514 66.9461 54.9396 66.94 54.4338C66.94 53.9219 66.934 53.4101 66.922 52.8983H67.9065C67.9005 53.4041 67.8944 53.9129 67.8884 54.4247C67.8884 54.9366 67.8884 55.4514 67.8884 55.9692V56.6015C67.8884 57.0471 67.8884 57.5168 67.8884 58.0105C67.8944 58.4983 67.9005 58.998 67.9065 59.5099H66.922ZM67.4187 56.8183V56.5112H68.3671C68.8067 56.5112 69.162 56.4419 69.4329 56.3034C69.7039 56.1589 69.9026 55.9602 70.029 55.7073C70.1615 55.4484 70.2278 55.1563 70.2278 54.8312C70.2278 54.3013 70.0923 53.9009 69.8213 53.6299C69.5503 53.3529 69.1318 53.2144 68.5658 53.2144H67.4187V52.8983H68.62C69.4811 52.8983 70.1133 53.0699 70.5168 53.4131C70.9262 53.7564 71.131 54.229 71.131 54.8312C71.131 55.1985 71.0376 55.5327 70.851 55.8338C70.6643 56.1348 70.3693 56.3757 69.9658 56.5563C69.5624 56.731 69.0385 56.8183 68.3942 56.8183H67.4187ZM66.0278 53.1783V52.8983H67.4187V53.2867H67.3104L66.0278 53.1783ZM71.6605 59.5099V59.257L72.7082 59.1576H73.0695L74.1353 59.257V59.5099H71.6605ZM72.4373 59.5099C72.4433 59.3112 72.4463 59.0944 72.4463 58.8596C72.4523 58.6187 72.4553 58.3748 72.4553 58.1279C72.4613 57.8811 72.4644 57.6492 72.4644 57.4325V52.7809L71.6966 52.7357V52.4918L73.2411 52.2028L73.3766 52.2841L73.3495 53.6931V57.4325C73.3495 57.6492 73.3495 57.8811 73.3495 58.1279C73.3555 58.3748 73.3585 58.6187 73.3585 58.8596C73.3646 59.0944 73.3706 59.3112 73.3766 59.5099H72.4373ZM76.0771 59.6454C75.7158 59.6454 75.4147 59.543 75.1739 59.3383C74.933 59.1335 74.8126 58.8415 74.8126 58.4621C74.8126 58.2213 74.8638 58.0075 74.9661 57.8209C75.0745 57.6342 75.2522 57.4686 75.499 57.3241C75.7459 57.1735 76.0771 57.0381 76.4926 56.9176C76.7395 56.8454 77.0044 56.7731 77.2874 56.7009C77.5704 56.6286 77.8324 56.5624 78.0732 56.5021V56.728C77.8324 56.7882 77.5885 56.8544 77.3416 56.9267C77.1007 56.9929 76.884 57.0621 76.6913 57.1344C76.324 57.2729 76.059 57.4415 75.8965 57.6402C75.7399 57.8329 75.6616 58.0647 75.6616 58.3357C75.6616 58.6127 75.7339 58.8204 75.8784 58.9589C76.0289 59.0974 76.2246 59.1666 76.4655 59.1666C76.5919 59.1666 76.7184 59.1426 76.8448 59.0944C76.9713 59.0462 77.1158 58.9589 77.2784 58.8325C77.441 58.7 77.6336 58.5193 77.8564 58.2905L77.9468 58.7331H77.7029C77.5222 58.9318 77.3506 59.1004 77.1881 59.2389C77.0255 59.3714 76.8569 59.4707 76.6823 59.537C76.5076 59.6092 76.3059 59.6454 76.0771 59.6454ZM78.5158 59.6363C78.2388 59.6363 78.0281 59.546 77.8835 59.3654C77.745 59.1847 77.6638 58.9378 77.6397 58.6247V58.5976V56.2131C77.6397 55.8759 77.6035 55.617 77.5313 55.4363C77.459 55.2557 77.3476 55.1293 77.1971 55.057C77.0526 54.9847 76.8629 54.9486 76.6281 54.9486C76.4595 54.9486 76.2878 54.9727 76.1132 55.0209C75.9446 55.063 75.758 55.1383 75.5532 55.2467L75.9958 55.0028L75.8603 55.7163C75.8423 55.903 75.7881 56.0355 75.6977 56.1138C75.6134 56.192 75.5111 56.2312 75.3906 56.2312C75.1498 56.2312 75.0023 56.1138 74.9481 55.8789C75.0264 55.4996 75.2311 55.2015 75.5623 54.9847C75.8995 54.768 76.342 54.6596 76.89 54.6596C77.4379 54.6596 77.8414 54.789 78.1003 55.048C78.3592 55.3069 78.4887 55.7254 78.4887 56.3034V58.5705C78.4887 58.8294 78.5188 59.0071 78.579 59.1034C78.6453 59.1998 78.7356 59.2479 78.85 59.2479C78.9222 59.2479 78.9885 59.2299 79.0487 59.1937C79.1089 59.1576 79.1782 59.0944 79.2564 59.0041L79.4009 59.1305C79.3046 59.3051 79.1812 59.4316 79.0306 59.5099C78.8861 59.5942 78.7145 59.6363 78.5158 59.6363ZM79.8384 59.5099V59.257L80.8139 59.1576H81.1842L82.1326 59.257V59.5099H79.8384ZM80.5519 59.5099C80.5579 59.3593 80.561 59.1606 80.561 58.9137C80.567 58.6669 80.57 58.4079 80.57 58.137C80.576 57.866 80.579 57.6312 80.579 57.4325V56.8454C80.579 56.5383 80.576 56.2703 80.57 56.0415C80.57 55.8067 80.564 55.5809 80.5519 55.3641L79.7842 55.3099V55.0841L81.2835 54.6867L81.4009 54.7589L81.4551 55.8067V55.8157V57.4325C81.4551 57.6312 81.4551 57.866 81.4551 58.137C81.4612 58.4079 81.4642 58.6669 81.4642 58.9137C81.4702 59.1606 81.4762 59.3593 81.4822 59.5099H80.5519ZM82.9274 59.5099V59.257L83.8848 59.1576H84.2642L85.2125 59.257V59.5099H82.9274ZM83.6319 59.5099C83.6379 59.3593 83.6409 59.1636 83.6409 58.9228C83.647 58.6759 83.65 58.417 83.65 58.146C83.656 57.875 83.659 57.6372 83.659 57.4325V56.3305C83.659 55.909 83.5898 55.614 83.4513 55.4454C83.3128 55.2708 83.1171 55.1834 82.8642 55.1834C82.6655 55.1834 82.4276 55.2527 82.1506 55.3912C81.8736 55.5237 81.5786 55.7645 81.2655 56.1138L81.2022 55.7886H81.3016C81.6328 55.3791 81.9579 55.0901 82.2771 54.9215C82.5962 54.7469 82.9153 54.6596 83.2345 54.6596C83.6379 54.6596 83.954 54.7951 84.1829 55.066C84.4117 55.331 84.5261 55.7645 84.5261 56.3667V57.4325C84.5261 57.6372 84.5261 57.875 84.5261 58.146C84.5321 58.417 84.5381 58.6759 84.5442 58.9228C84.5502 59.1636 84.5562 59.3593 84.5622 59.5099H83.6319ZM86.9376 55.1383V54.7951H88.6357V55.1383H86.9376ZM87.6512 59.6454C87.2598 59.6454 86.9677 59.546 86.775 59.3473C86.5824 59.1426 86.486 58.8294 86.486 58.4079C86.486 58.2574 86.486 58.1219 86.486 58.0015C86.492 57.8811 86.495 57.7365 86.495 57.5679V55.1383H85.6279V54.8583L86.6847 54.777L86.5131 54.9034L86.8292 53.377H87.4073L87.3802 54.9396V55.0389V58.435C87.3802 58.706 87.4314 58.9047 87.5337 59.0312C87.6421 59.1516 87.7927 59.2118 87.9854 59.2118C88.1178 59.2118 88.2322 59.1907 88.3286 59.1486C88.4309 59.1064 88.5423 59.0462 88.6628 58.9679L88.7983 59.1305C88.6718 59.2991 88.5152 59.4256 88.3286 59.5099C88.1419 59.6002 87.9161 59.6454 87.6512 59.6454ZM89.0302 57.306V56.8092H91.4237V57.306H89.0302ZM92.1167 59.5099V59.257L92.8393 59.1937C92.8453 59.0191 92.8483 58.8264 92.8483 58.6157C92.8483 58.4049 92.8483 58.1972 92.8483 57.9925C92.8544 57.7817 92.8574 57.595 92.8574 57.4325V52.7809L92.0896 52.7357V52.4918L93.6161 52.2028L93.7516 52.2841L93.7245 53.6931V55.4905L93.7425 55.5809V58.7783V58.7963L93.6071 59.6092L92.1167 59.5099ZM95.1787 59.6454C94.8896 59.6454 94.6036 59.5731 94.3206 59.4286C94.0436 59.2841 93.7937 59.0492 93.5709 58.7241H93.4716L93.598 58.5163C93.8148 58.7572 94.0255 58.9288 94.2303 59.0312C94.435 59.1275 94.6488 59.1757 94.8716 59.1757C95.1184 59.1757 95.3442 59.1125 95.549 58.986C95.7597 58.8535 95.9283 58.6368 96.0548 58.3357C96.1812 58.0346 96.2445 57.6252 96.2445 57.1073C96.2445 56.4269 96.118 55.9271 95.8651 55.608C95.6122 55.2828 95.287 55.1202 94.8896 55.1202C94.7511 55.1202 94.6096 55.1413 94.4651 55.1834C94.3206 55.2196 94.1701 55.2948 94.0135 55.4093C93.8569 55.5176 93.6823 55.6772 93.4896 55.888L93.3812 55.626H93.5167C93.7636 55.2888 94.0376 55.045 94.3387 54.8944C94.6458 54.7379 94.9559 54.6596 95.269 54.6596C95.6423 54.6596 95.9705 54.7589 96.2535 54.9576C96.5425 55.1563 96.7683 55.4394 96.9309 55.8067C97.0995 56.168 97.1838 56.6045 97.1838 57.1163C97.1838 57.6041 97.0995 58.0406 96.9309 58.426C96.7623 58.8054 96.5275 59.1034 96.2264 59.3202C95.9253 59.537 95.5761 59.6454 95.1787 59.6454ZM99.2839 59.6454C98.9226 59.6454 98.6215 59.543 98.3806 59.3383C98.1398 59.1335 98.0194 58.8415 98.0194 58.4621C98.0194 58.2213 98.0705 58.0075 98.1729 57.8209C98.2813 57.6342 98.4589 57.4686 98.7058 57.3241C98.9527 57.1735 99.2839 57.0381 99.6993 56.9176C99.9462 56.8454 100.211 56.7731 100.494 56.7009C100.777 56.6286 101.039 56.5624 101.28 56.5021V56.728C101.039 56.7882 100.795 56.8544 100.548 56.9267C100.308 56.9929 100.091 57.0621 99.8981 57.1344C99.5307 57.2729 99.2658 57.4415 99.1032 57.6402C98.9467 57.8329 98.8684 58.0647 98.8684 58.3357C98.8684 58.6127 98.9406 58.8204 99.0852 58.9589C99.2357 59.0974 99.4314 59.1666 99.6722 59.1666C99.7987 59.1666 99.9252 59.1426 100.052 59.0944C100.178 59.0462 100.323 58.9589 100.485 58.8325C100.648 58.7 100.84 58.5193 101.063 58.2905L101.154 58.7331H100.91C100.729 58.9318 100.557 59.1004 100.395 59.2389C100.232 59.3714 100.064 59.4707 99.889 59.537C99.7144 59.6092 99.5127 59.6454 99.2839 59.6454ZM101.723 59.6363C101.446 59.6363 101.235 59.546 101.09 59.3654C100.952 59.1847 100.871 58.9378 100.846 58.6247V58.5976V56.2131C100.846 55.8759 100.81 55.617 100.738 55.4363C100.666 55.2557 100.554 55.1293 100.404 55.057C100.259 54.9847 100.07 54.9486 99.8348 54.9486C99.6662 54.9486 99.4946 54.9727 99.32 55.0209C99.1514 55.063 98.9647 55.1383 98.76 55.2467L99.2026 55.0028L99.0671 55.7163C99.049 55.903 98.9948 56.0355 98.9045 56.1138C98.8202 56.192 98.7178 56.2312 98.5974 56.2312C98.3566 56.2312 98.209 56.1138 98.1548 55.8789C98.2331 55.4996 98.4378 55.2015 98.769 54.9847C99.1062 54.768 99.5488 54.6596 100.097 54.6596C100.645 54.6596 101.048 54.789 101.307 55.048C101.566 55.3069 101.695 55.7254 101.695 56.3034V58.5705C101.695 58.8294 101.726 59.0071 101.786 59.1034C101.852 59.1998 101.942 59.2479 102.057 59.2479C102.129 59.2479 102.195 59.2299 102.255 59.1937C102.316 59.1576 102.385 59.0944 102.463 59.0041L102.608 59.1305C102.511 59.3051 102.388 59.4316 102.237 59.5099C102.093 59.5942 101.921 59.6363 101.723 59.6363ZM104.716 59.6454C104.409 59.6454 104.132 59.6122 103.885 59.546C103.644 59.4858 103.4 59.3925 103.154 59.266L103.163 58.1641H103.587L103.822 59.3383L103.461 59.3112V58.986C103.641 59.1004 103.822 59.1907 104.003 59.257C104.189 59.3172 104.412 59.3473 104.671 59.3473C105.062 59.3473 105.357 59.272 105.556 59.1215C105.755 58.9649 105.854 58.7572 105.854 58.4983C105.854 58.2815 105.788 58.1039 105.655 57.9654C105.523 57.8269 105.27 57.7004 104.897 57.586L104.418 57.4144C104.051 57.2879 103.756 57.1193 103.533 56.9086C103.316 56.6918 103.208 56.4088 103.208 56.0596C103.208 55.6622 103.358 55.331 103.659 55.066C103.966 54.7951 104.403 54.6596 104.969 54.6596C105.252 54.6596 105.502 54.6927 105.719 54.7589C105.935 54.8252 106.161 54.9275 106.396 55.066L106.36 56.0596H105.972L105.719 54.9667L106.026 55.0389V55.328C105.845 55.1955 105.674 55.1022 105.511 55.048C105.348 54.9938 105.171 54.9667 104.978 54.9667C104.647 54.9667 104.394 55.0419 104.219 55.1925C104.045 55.337 103.957 55.5267 103.957 55.7615C103.957 55.9662 104.027 56.1378 104.165 56.2763C104.31 56.4088 104.547 56.5323 104.879 56.6467L105.348 56.8092C105.812 56.9658 106.14 57.1555 106.333 57.3783C106.532 57.6011 106.631 57.875 106.631 58.2002C106.631 58.4772 106.556 58.7271 106.405 58.9499C106.261 59.1666 106.047 59.3383 105.764 59.4647C105.481 59.5851 105.132 59.6454 104.716 59.6454ZM109.805 59.6454C109.348 59.6454 108.941 59.552 108.586 59.3654C108.231 59.1787 107.951 58.9017 107.746 58.5344C107.547 58.1611 107.448 57.7034 107.448 57.1615C107.448 56.6437 107.553 56.1981 107.764 55.8247C107.975 55.4514 108.255 55.1654 108.604 54.9667C108.953 54.7619 109.33 54.6596 109.733 54.6596C110.142 54.6596 110.489 54.7439 110.772 54.9125C111.061 55.0811 111.278 55.3099 111.422 55.5989C111.573 55.8819 111.648 56.2071 111.648 56.5744C111.648 56.7912 111.63 56.9718 111.594 57.1163H107.845V56.8273H110.374C110.543 56.8273 110.657 56.7821 110.718 56.6918C110.778 56.6015 110.808 56.457 110.808 56.2583C110.808 55.8669 110.711 55.5538 110.519 55.3189C110.326 55.0781 110.055 54.9576 109.706 54.9576C109.459 54.9576 109.233 55.0389 109.028 55.2015C108.83 55.3581 108.67 55.5929 108.55 55.906C108.429 56.2131 108.369 56.5925 108.369 57.0441C108.369 57.5318 108.441 57.9353 108.586 58.2544C108.736 58.5675 108.938 58.7963 109.191 58.9408C109.444 59.0854 109.736 59.1576 110.067 59.1576C110.386 59.1576 110.66 59.1004 110.889 58.986C111.124 58.8716 111.329 58.709 111.503 58.4983L111.657 58.6157C111.464 58.9408 111.211 59.1937 110.898 59.3744C110.591 59.555 110.227 59.6454 109.805 59.6454ZM114.454 59.6454C114.069 59.6454 113.723 59.546 113.416 59.3473C113.114 59.1426 112.877 58.8565 112.702 58.4892C112.533 58.1219 112.449 57.6944 112.449 57.2067C112.449 56.6828 112.542 56.2312 112.729 55.8518C112.922 55.4725 113.178 55.1804 113.497 54.9757C113.822 54.765 114.183 54.6596 114.581 54.6596C114.852 54.6596 115.111 54.7258 115.357 54.8583C115.604 54.9908 115.836 55.2105 116.053 55.5176H116.143L116.017 55.7254C115.812 55.5086 115.616 55.3551 115.43 55.2647C115.249 55.1684 115.053 55.1202 114.843 55.1202C114.578 55.1202 114.334 55.1895 114.111 55.328C113.894 55.4604 113.72 55.6802 113.587 55.9873C113.455 56.2884 113.388 56.6858 113.388 57.1796C113.388 57.6432 113.449 58.0226 113.569 58.3176C113.696 58.6127 113.864 58.8294 114.075 58.9679C114.286 59.1064 114.523 59.1757 114.788 59.1757C115.017 59.1757 115.228 59.1275 115.421 59.0312C115.613 58.9288 115.806 58.7632 115.999 58.5344L116.125 58.7692H116.044C115.839 59.0583 115.601 59.278 115.33 59.4286C115.065 59.5731 114.773 59.6454 114.454 59.6454ZM115.936 59.6002L115.881 58.7241V58.706V55.5538L115.908 55.4634V52.7809L115.105 52.7357V52.4918L116.649 52.2028L116.785 52.2841L116.757 53.666V59.2028L117.552 59.257V59.5099L115.936 59.6002ZM120.547 59.5099V59.2299L121.83 59.1125H121.947L121.938 59.5099H120.547ZM121.442 59.5099C121.454 59.0041 121.46 58.5013 121.46 58.0015C121.466 57.4957 121.469 57.011 121.469 56.5473V55.9692C121.469 55.4514 121.466 54.9366 121.46 54.4247C121.46 53.9129 121.454 53.4041 121.442 52.8983H122.426C122.42 53.4041 122.414 53.9159 122.408 54.4338C122.408 54.9516 122.408 55.4875 122.408 56.0415V56.5744C122.408 57.02 122.408 57.4927 122.408 57.9925C122.414 58.4922 122.42 58.998 122.426 59.5099H121.442ZM121.938 59.5099L121.947 59.1937H125.136L124.684 59.4376L125.045 57.7034H125.452L125.407 59.5099H121.938ZM120.547 53.1783V52.8983H123.365V53.1783L122.065 53.2867H121.83L120.547 53.1783ZM126.155 59.5099V59.257L127.14 59.1576H127.501L128.468 59.257V59.5099H126.155ZM126.869 59.5099C126.875 59.3593 126.881 59.1606 126.887 58.9137C126.893 58.6669 126.896 58.4079 126.896 58.137C126.902 57.866 126.905 57.6312 126.905 57.4325V56.8544C126.905 56.5473 126.902 56.2763 126.896 56.0415C126.89 55.8006 126.881 55.5688 126.869 55.346L126.092 55.3009V55.0751L127.691 54.6867L127.808 54.7589L127.781 56.0596V57.4325C127.781 57.6312 127.781 57.866 127.781 58.137C127.787 58.4079 127.79 58.6669 127.79 58.9137C127.796 59.1606 127.802 59.3593 127.808 59.5099H126.869ZM127.275 53.5938C127.119 53.5938 126.983 53.5426 126.869 53.4402C126.76 53.3379 126.706 53.2054 126.706 53.0428C126.706 52.8802 126.76 52.7478 126.869 52.6454C126.983 52.543 127.119 52.4918 127.275 52.4918C127.432 52.4918 127.567 52.543 127.682 52.6454C127.796 52.7478 127.853 52.8802 127.853 53.0428C127.853 53.2054 127.796 53.3379 127.682 53.4402C127.567 53.5426 127.432 53.5938 127.275 53.5938ZM131.077 61.8582C130.607 61.8582 130.231 61.8041 129.948 61.6957C129.671 61.5933 129.469 61.4518 129.343 61.2712C129.222 61.0965 129.162 60.8948 129.162 60.666C129.162 60.395 129.262 60.1572 129.46 59.9525C129.665 59.7477 129.966 59.5701 130.364 59.4196L130.409 59.4918C130.192 59.6664 130.032 59.826 129.93 59.9705C129.828 60.1211 129.776 60.3047 129.776 60.5215C129.776 60.8466 129.891 61.0935 130.12 61.2621C130.355 61.4307 130.683 61.515 131.104 61.515C131.724 61.515 132.191 61.4066 132.504 61.1899C132.823 60.9791 132.983 60.7081 132.983 60.377C132.983 60.1903 132.914 60.0217 132.775 59.8712C132.637 59.7266 132.384 59.6544 132.016 59.6544H130.933C130.764 59.6544 130.619 59.6514 130.499 59.6454C130.385 59.6393 130.276 59.6183 130.174 59.5821V59.5641C129.698 59.4376 129.46 59.1636 129.46 58.7421C129.46 58.5434 129.521 58.3538 129.641 58.1731C129.761 57.9864 129.966 57.7877 130.255 57.577V57.4957L130.454 57.595C130.309 57.7516 130.201 57.8871 130.129 58.0015C130.062 58.1159 130.029 58.2454 130.029 58.3899C130.029 58.5464 130.081 58.6699 130.183 58.7602C130.291 58.8505 130.469 58.8957 130.716 58.8957H132.044C132.435 58.8957 132.754 58.9469 133.001 59.0492C133.248 59.1456 133.428 59.2871 133.543 59.4737C133.663 59.6604 133.724 59.8802 133.724 60.1331C133.724 60.4221 133.621 60.6991 133.416 60.9641C133.218 61.229 132.92 61.4428 132.522 61.6053C132.131 61.7739 131.649 61.8582 131.077 61.8582ZM131.213 57.9021C130.827 57.9021 130.496 57.8329 130.219 57.6944C129.948 57.5559 129.74 57.3662 129.596 57.1254C129.451 56.8845 129.379 56.6045 129.379 56.2854C129.379 55.7976 129.539 55.4062 129.858 55.1112C130.183 54.8101 130.635 54.6596 131.213 54.6596C131.514 54.6596 131.779 54.7017 132.007 54.786C132.242 54.8643 132.435 54.9817 132.585 55.1383L132.613 55.1654C132.896 55.4363 133.037 55.8097 133.037 56.2854C133.037 56.6045 132.965 56.8845 132.82 57.1254C132.676 57.3662 132.465 57.5559 132.188 57.6944C131.917 57.8329 131.592 57.9021 131.213 57.9021ZM131.204 57.6221C131.523 57.6221 131.773 57.5017 131.953 57.2609C132.14 57.014 132.233 56.6858 132.233 56.2763C132.233 55.8669 132.14 55.5417 131.953 55.3009C131.767 55.054 131.523 54.9305 131.222 54.9305C130.902 54.9305 130.65 55.054 130.463 55.3009C130.282 55.5477 130.192 55.8759 130.192 56.2854C130.192 56.6888 130.282 57.014 130.463 57.2609C130.644 57.5017 130.89 57.6221 131.204 57.6221ZM132.305 55.2467V55.1022H132.36L133.624 54.6867L133.778 54.786V55.3189L132.305 55.2467ZM134.27 59.5099V59.257L135.245 59.1576H135.625L136.555 59.257V59.5099H134.27ZM134.984 59.5099C134.99 59.3593 134.993 59.1606 134.993 58.9137C134.999 58.6669 135.002 58.4079 135.002 58.137C135.008 57.866 135.011 57.6312 135.011 57.4325V52.7809L134.243 52.7357V52.4918L135.769 52.2028L135.905 52.2841L135.878 53.6931V55.7073L135.896 55.8247V57.4325C135.896 57.6312 135.896 57.866 135.896 58.137C135.902 58.4079 135.905 58.6669 135.905 58.9137C135.911 59.1606 135.917 59.3593 135.923 59.5099H134.984ZM137.368 59.5099V59.257L138.325 59.1576H138.696L139.662 59.257V59.5099H137.368ZM138.063 59.5099C138.076 59.3593 138.082 59.1636 138.082 58.9228C138.088 58.6759 138.091 58.417 138.091 58.146C138.097 57.875 138.1 57.6372 138.1 57.4325V56.3305C138.1 55.909 138.027 55.614 137.883 55.4454C137.738 55.2708 137.543 55.1834 137.296 55.1834C137.085 55.1834 136.844 55.2497 136.573 55.3822C136.302 55.5146 136.01 55.7585 135.697 56.1138L135.507 55.7796H135.751C136.064 55.3882 136.377 55.1052 136.691 54.9305C137.004 54.7499 137.329 54.6596 137.666 54.6596C138.076 54.6596 138.395 54.7921 138.623 55.057C138.858 55.3219 138.976 55.7645 138.976 56.3847V57.4325C138.976 57.6372 138.976 57.875 138.976 58.146C138.982 58.417 138.988 58.6759 138.994 58.9228C139 59.1636 139.006 59.3593 139.012 59.5099H138.063ZM141.378 55.1383V54.7951H143.076V55.1383H141.378ZM142.091 59.6454C141.7 59.6454 141.408 59.546 141.215 59.3473C141.023 59.1426 140.926 58.8294 140.926 58.4079C140.926 58.2574 140.926 58.1219 140.926 58.0015C140.932 57.8811 140.935 57.7365 140.935 57.5679V55.1383H140.068V54.8583L141.125 54.777L140.953 54.9034L141.269 53.377H141.847L141.82 54.9396V55.0389V58.435C141.82 58.706 141.872 58.9047 141.974 59.0312C142.082 59.1516 142.233 59.2118 142.426 59.2118C142.558 59.2118 142.672 59.1907 142.769 59.1486C142.871 59.1064 142.983 59.0462 143.103 58.9679L143.238 59.1305C143.112 59.2991 142.955 59.4256 142.769 59.5099C142.582 59.6002 142.356 59.6454 142.091 59.6454ZM146.092 59.5099V59.2299L147.374 59.1125H147.654L148.982 59.2299V59.5099H146.092ZM146.986 59.5099C146.998 59.0041 147.004 58.4953 147.004 57.9834C147.01 57.4716 147.013 56.9598 147.013 56.448V55.9692C147.013 55.4514 147.01 54.9396 147.004 54.4338C147.004 53.9219 146.998 53.4101 146.986 52.8983H147.97C147.964 53.4041 147.958 53.9189 147.952 54.4428C147.952 54.9607 147.952 55.4996 147.952 56.0596V56.2763C147.952 56.8725 147.952 57.4325 147.952 57.9563C147.958 58.4802 147.964 58.998 147.97 59.5099H146.986ZM147.483 56.3034V55.9963H149.695V56.3034H147.483ZM149.614 57.2699L149.488 56.2673V56.0234L149.614 55.057H149.957V57.2699H149.614ZM146.092 53.1783V52.8983H147.483V53.2867H147.374L146.092 53.1783ZM150.626 54.5602L150.283 52.9435L150.761 53.2235H147.483V52.8983H150.987L151.032 54.5602H150.626ZM153.598 59.6454C153.176 59.6454 152.791 59.552 152.442 59.3654C152.092 59.1727 151.812 58.8897 151.602 58.5163C151.397 58.143 151.295 57.6884 151.295 57.1525C151.295 56.6105 151.403 56.1559 151.62 55.7886C151.837 55.4153 152.12 55.1353 152.469 54.9486C152.824 54.7559 153.2 54.6596 153.598 54.6596C154.007 54.6596 154.387 54.7559 154.736 54.9486C155.091 55.1353 155.377 55.4153 155.594 55.7886C155.811 56.1559 155.919 56.6105 155.919 57.1525C155.919 57.6884 155.811 58.143 155.594 58.5163C155.383 58.8897 155.103 59.1727 154.754 59.3654C154.405 59.552 154.019 59.6454 153.598 59.6454ZM153.598 59.3563C154.025 59.3563 154.36 59.1697 154.6 58.7963C154.841 58.423 154.962 57.8781 154.962 57.1615C154.962 56.4449 154.841 55.9 154.6 55.5267C154.36 55.1473 154.025 54.9576 153.598 54.9576C153.176 54.9576 152.845 55.1473 152.604 55.5267C152.363 55.9 152.243 56.4449 152.243 57.1615C152.243 57.8781 152.363 58.423 152.604 58.7963C152.845 59.1697 153.176 59.3563 153.598 59.3563ZM159.075 59.6454C158.654 59.6454 158.268 59.552 157.919 59.3654C157.57 59.1727 157.29 58.8897 157.079 58.5163C156.875 58.143 156.772 57.6884 156.772 57.1525C156.772 56.6105 156.881 56.1559 157.097 55.7886C157.314 55.4153 157.597 55.1353 157.946 54.9486C158.302 54.7559 158.678 54.6596 159.075 54.6596C159.485 54.6596 159.864 54.7559 160.213 54.9486C160.569 55.1353 160.855 55.4153 161.071 55.7886C161.288 56.1559 161.397 56.6105 161.397 57.1525C161.397 57.6884 161.288 58.143 161.071 58.5163C160.861 58.8897 160.581 59.1727 160.231 59.3654C159.882 59.552 159.497 59.6454 159.075 59.6454ZM159.075 59.3563C159.503 59.3563 159.837 59.1697 160.078 58.7963C160.319 58.423 160.439 57.8781 160.439 57.1615C160.439 56.4449 160.319 55.9 160.078 55.5267C159.837 55.1473 159.503 54.9576 159.075 54.9576C158.654 54.9576 158.323 55.1473 158.082 55.5267C157.841 55.9 157.721 56.4449 157.721 57.1615C157.721 57.8781 157.841 58.423 158.082 58.7963C158.323 59.1697 158.654 59.3563 159.075 59.3563ZM164.255 59.6454C163.869 59.6454 163.523 59.546 163.216 59.3473C162.915 59.1426 162.677 58.8565 162.503 58.4892C162.334 58.1219 162.25 57.6944 162.25 57.2067C162.25 56.6828 162.343 56.2312 162.53 55.8518C162.722 55.4725 162.978 55.1804 163.297 54.9757C163.623 54.765 163.984 54.6596 164.381 54.6596C164.652 54.6596 164.911 54.7258 165.158 54.8583C165.405 54.9908 165.637 55.2105 165.854 55.5176H165.944L165.817 55.7254C165.613 55.5086 165.417 55.3551 165.23 55.2647C165.05 55.1684 164.854 55.1202 164.643 55.1202C164.378 55.1202 164.134 55.1895 163.912 55.328C163.695 55.4604 163.52 55.6802 163.388 55.9873C163.255 56.2884 163.189 56.6858 163.189 57.1796C163.189 57.6432 163.249 58.0226 163.37 58.3176C163.496 58.6127 163.665 58.8294 163.875 58.9679C164.086 59.1064 164.324 59.1757 164.589 59.1757C164.818 59.1757 165.029 59.1275 165.221 59.0312C165.414 58.9288 165.607 58.7632 165.799 58.5344L165.926 58.7692H165.845C165.64 59.0583 165.402 59.278 165.131 59.4286C164.866 59.5731 164.574 59.6454 164.255 59.6454ZM165.736 59.6002L165.682 58.7241V58.706V55.5538L165.709 55.4634V52.7809L164.905 52.7357V52.4918L166.45 52.2028L166.585 52.2841L166.558 53.666V59.2028L167.353 59.257V59.5099L165.736 59.6002Z" fill="black"/>
</svg>
