<svg width="32" height="31" viewBox="0 0 32 31" fill="none" xmlns="http://www.w3.org/2000/svg">
<path d="M27.8246 0.227905H4.08691C2.2218 0.227905 0.695801 1.7539 0.695801 3.61901V27.3567C0.695801 29.2236 2.2218 30.7479 4.08691 30.7479H15.9558V18.879H12.5647V14.6825H15.9558V11.2066C15.9558 7.53743 18.0108 4.96019 22.3412 4.96019L25.3983 4.96358V9.3805H23.3687C21.6833 9.3805 21.0424 10.6454 21.0424 11.8187V14.6842H25.3966L24.4335 18.879H21.0424V30.7479H27.8246C29.6898 30.7479 31.2157 29.2236 31.2157 27.3567V3.61901C31.2157 1.7539 29.6898 0.227905 27.8246 0.227905Z" fill="white"/>
</svg>
