<svg width="31" height="31" viewBox="0 0 31 31" fill="none" xmlns="http://www.w3.org/2000/svg">
<path fill-rule="evenodd" clip-rule="evenodd" d="M0.0332031 13.7806C0.0332031 7.3423 0.0332029 4.12228 2.03419 2.123C4.03518 0.123716 7.25349 0.122009 13.6918 0.122009H17.1065C23.5448 0.122009 26.7648 0.122009 28.7641 2.123C30.7634 4.12398 30.7651 7.3423 30.7651 13.7806V17.1953C30.7651 23.6336 30.7651 26.8536 28.7641 28.8529C26.7631 30.8522 23.5448 30.8539 17.1065 30.8539H13.6918C7.25349 30.8539 4.03347 30.8539 2.03419 28.8529C0.0349103 26.8519 0.0332031 23.6336 0.0332031 17.1953V13.7806ZM25.6431 7.80498C25.6431 8.4842 25.3733 9.1356 24.893 9.61588C24.4127 10.0962 23.7613 10.366 23.0821 10.366C22.4029 10.366 21.7515 10.0962 21.2712 9.61588C20.7909 9.1356 20.5211 8.4842 20.5211 7.80498C20.5211 7.12576 20.7909 6.47437 21.2712 5.99409C21.7515 5.51381 22.4029 5.24399 23.0821 5.24399C23.7613 5.24399 24.4127 5.51381 24.893 5.99409C25.3733 6.47437 25.6431 7.12576 25.6431 7.80498ZM18.8138 17.1953C18.8138 18.1009 18.454 18.9694 17.8137 19.6098C17.1733 20.2502 16.3048 20.6099 15.3991 20.6099C14.4935 20.6099 13.625 20.2502 12.9846 19.6098C12.3443 18.9694 11.9845 18.1009 11.9845 17.1953C11.9845 16.2897 12.3443 15.4211 12.9846 14.7808C13.625 14.1404 14.4935 13.7806 15.3991 13.7806C16.3048 13.7806 17.1733 14.1404 17.8137 14.7808C18.454 15.4211 18.8138 16.2897 18.8138 17.1953ZM22.2285 17.1953C22.2285 19.0065 21.5089 20.7436 20.2282 22.0243C18.9475 23.3051 17.2104 24.0246 15.3991 24.0246C13.5879 24.0246 11.8508 23.3051 10.5701 22.0243C9.28935 20.7436 8.56984 19.0065 8.56984 17.1953C8.56984 15.384 9.28935 13.647 10.5701 12.3662C11.8508 11.0855 13.5879 10.366 15.3991 10.366C17.2104 10.366 18.9475 11.0855 20.2282 12.3662C21.5089 13.647 22.2285 15.384 22.2285 17.1953Z" fill="white"/>
</svg>
