<svg width="32" height="31" viewBox="0 0 32 31" fill="none" xmlns="http://www.w3.org/2000/svg">
<mask id="mask0_261_126" style="mask-type:luminance" maskUnits="userSpaceOnUse" x="0" y="0" width="32" height="31">
<path d="M0.948242 0.180847H31.5624V30.795H0.948242V0.180847Z" fill="white"/>
</mask>
<g mask="url(#mask0_261_126)">
<path d="M12.1683 15.8247V16.6207C12.1683 16.7584 12.0918 16.8196 11.954 16.8196H8.78544C8.60176 16.8196 8.54053 16.8196 8.54053 16.5747V11.6612C8.54053 11.4622 8.54053 11.4009 8.80075 11.4009H9.50487C9.68856 11.4009 9.74979 11.4775 9.74979 11.6459V15.5645H11.9999C12.0445 15.5693 12.086 15.589 12.118 15.6204C12.1499 15.6518 12.1704 15.693 12.176 15.7374C12.182 15.7666 12.1793 15.797 12.1683 15.8247ZM14.1276 11.6459V16.5747C14.1276 16.7584 14.1276 16.8196 13.8674 16.8196C13.6225 16.835 13.3776 16.835 13.1326 16.8196C13.0993 16.8249 13.0652 16.8222 13.0331 16.8117C13.001 16.8012 12.9718 16.7833 12.9479 16.7595C12.924 16.7356 12.9061 16.7064 12.8957 16.6743C12.8852 16.6422 12.8825 16.6081 12.8877 16.5747V11.6459C12.8796 11.6057 12.8824 11.564 12.8959 11.5253C12.9093 11.4865 12.9329 11.4521 12.9641 11.4255C12.9954 11.3989 13.0331 11.3812 13.0736 11.3742C13.114 11.3672 13.1555 11.3712 13.1939 11.3856H13.9133C13.9449 11.3875 13.9758 11.3958 14.004 11.4101C14.0323 11.4245 14.0572 11.4445 14.0773 11.4689C14.0975 11.4933 14.1123 11.5217 14.121 11.5521C14.1296 11.5826 14.1319 11.6145 14.1276 11.6459ZM19.6841 11.6306V16.5747C19.6841 16.7431 19.6841 16.8043 19.4392 16.8043H18.6585C18.6226 16.8056 18.587 16.7979 18.5549 16.7819C18.5228 16.7658 18.4953 16.742 18.4748 16.7125L17.3268 15.1818L16.2553 13.7276V13.6205V16.59C16.2553 16.8043 16.2553 16.8503 15.9951 16.8503H15.2909C15.2406 16.8582 15.189 16.848 15.1455 16.8213C15.102 16.7946 15.0695 16.7534 15.0537 16.7048C15.0433 16.6727 15.0407 16.6387 15.046 16.6053V11.6612C15.0437 11.6304 15.0481 11.5996 15.0588 11.5707C15.0696 11.5418 15.0864 11.5155 15.1082 11.4937C15.13 11.4719 15.1562 11.4551 15.1851 11.4444C15.214 11.4336 15.2449 11.4293 15.2756 11.4316H16.1175C16.1457 11.4361 16.1726 11.4466 16.1964 11.4625C16.2202 11.4783 16.2403 11.4991 16.2553 11.5234L17.9391 13.9572L18.383 14.5542V14.6307V11.6612C18.383 11.4622 18.4595 11.3856 18.6585 11.3856H19.3473C19.5922 11.3856 19.6841 11.4622 19.6841 11.6306ZM24.1384 11.6612V12.4265C24.1384 12.5949 24.1384 12.6714 23.9088 12.6714H21.8424C21.7352 12.6714 21.7352 12.6714 21.7352 12.7786V13.4215C21.7352 13.5439 21.7352 13.5439 21.8424 13.5439H23.9088C24.1078 13.5439 24.169 13.6205 24.169 13.8195V14.5236C24.1743 14.5569 24.1716 14.5911 24.1611 14.6232C24.1506 14.6553 24.1327 14.6844 24.1089 14.7083C24.085 14.7322 24.0558 14.7501 24.0237 14.7605C23.9916 14.771 23.9575 14.7737 23.9241 14.7685H21.8424C21.7352 14.7685 21.7352 14.7685 21.7352 14.891V15.4879C21.7352 15.6104 21.7352 15.6104 21.8424 15.6104H23.9088C24.0925 15.6104 24.1537 15.6104 24.1537 15.8706V16.5747C24.1537 16.7584 24.1537 16.8196 23.9088 16.8196H20.7709C20.4953 16.8196 20.5107 16.8196 20.5107 16.5747V11.6612C20.5107 11.4775 20.5872 11.4009 20.7709 11.4009H23.8323C24.0772 11.4009 24.1384 11.4775 24.1384 11.6612Z" fill="white"/>
<path d="M25.4396 0.180847H7.07107C5.4472 0.180847 3.88983 0.825929 2.74158 1.97418C1.59332 3.12244 0.948242 4.6798 0.948242 6.30368V24.6722C0.948242 26.296 1.59332 27.8534 2.74158 29.0017C3.88983 30.1499 5.4472 30.795 7.07107 30.795H25.4396C27.0634 30.795 28.6208 30.1499 29.7691 29.0017C30.9173 27.8534 31.5624 26.296 31.5624 24.6722V6.30368C31.5624 4.6798 30.9173 3.12244 29.7691 1.97418C28.6208 0.825929 27.0634 0.180847 25.4396 0.180847ZM27.1233 17.0186C26.7343 17.8954 26.2185 18.7103 25.5926 19.4371C24.5916 20.5726 23.473 21.5988 22.2557 22.4986C20.8464 23.6058 19.3769 24.6262 17.8472 25.56C17.3727 25.8508 16.8829 26.111 16.3931 26.3559C16.1794 26.4818 15.9369 26.5504 15.689 26.5549C15.6338 26.5653 15.5769 26.5623 15.5231 26.5463C15.4693 26.5302 15.4201 26.5015 15.3797 26.4625C15.3392 26.4236 15.3087 26.3755 15.2906 26.3224C15.2725 26.2692 15.2674 26.2125 15.2757 26.1569C15.2613 25.948 15.2613 25.7383 15.2757 25.5294C15.3772 25.0561 15.4335 24.5744 15.444 24.0905C15.4481 23.9463 15.4096 23.8041 15.3334 23.6816C15.2572 23.5591 15.1466 23.4617 15.0154 23.4017C14.7602 23.2763 14.4862 23.1935 14.2042 23.1568C12.7312 22.9442 11.3036 22.489 9.97941 21.8097C8.73179 21.1722 7.62347 20.2929 6.71901 19.2228C5.79368 18.1441 5.1565 16.8487 4.86685 15.4573C4.86685 15.1359 4.77501 14.8144 4.7444 14.4777C4.71378 14.1409 4.7444 13.8501 4.7444 13.5286C4.79035 12.6823 4.97657 11.8495 5.29545 11.0642C5.71055 10.0157 6.31213 9.05109 7.07107 8.21706C8.15697 7.08064 9.46467 6.17932 10.9131 5.56894C11.826 5.20331 12.7753 4.93647 13.745 4.77297L14.9083 4.6199H17.4952C19.2491 4.76415 20.9564 5.25862 22.5159 6.07407C23.6027 6.63278 24.5915 7.36599 25.4396 8.24767C26.3293 9.17672 26.9943 10.2973 27.3836 11.5234C27.5519 12.0178 27.6606 12.5337 27.705 13.0541V14.0491C27.7238 15.069 27.5256 16.0812 27.1233 17.0186Z" fill="white"/>
<path d="M19.6841 11.6306V16.5747C19.6841 16.7431 19.6841 16.8043 19.4392 16.8043H18.6585C18.6226 16.8056 18.587 16.7979 18.5549 16.7819C18.5228 16.7658 18.4953 16.742 18.4748 16.7125L17.3268 15.1818L16.2553 13.7276V13.6205V16.59C16.2553 16.8043 16.2553 16.8503 15.9951 16.8503H15.2909C15.2406 16.8582 15.189 16.848 15.1455 16.8213C15.102 16.7946 15.0695 16.7534 15.0537 16.7048C15.0433 16.6727 15.0407 16.6387 15.046 16.6053V11.6612C15.0437 11.6304 15.0481 11.5996 15.0588 11.5707C15.0696 11.5418 15.0864 11.5155 15.1082 11.4937C15.13 11.4719 15.1562 11.4551 15.1851 11.4444C15.214 11.4336 15.2449 11.4293 15.2756 11.4316H16.1175C16.1457 11.4361 16.1726 11.4466 16.1964 11.4625C16.2202 11.4783 16.2403 11.4991 16.2553 11.5234L17.9391 13.9572L18.383 14.5542V14.6307V11.6612C18.383 11.4622 18.4595 11.3856 18.6585 11.3856H19.3473C19.5922 11.3856 19.6841 11.4622 19.6841 11.6306ZM21.7352 12.7327V13.3756C21.7352 13.498 21.7352 13.498 21.8424 13.498H23.9088C24.1078 13.498 24.169 13.5745 24.169 13.7735V14.4777C24.1743 14.511 24.1716 14.5451 24.1611 14.5772C24.1506 14.6093 24.1327 14.6385 24.1089 14.6624C24.085 14.6863 24.0558 14.7042 24.0237 14.7146C23.9916 14.7251 23.9575 14.7278 23.9241 14.7226H21.8424C21.7352 14.7226 21.7352 14.7226 21.7352 14.845V15.4879C21.7352 15.6104 21.7352 15.6104 21.8424 15.6104H23.9088C24.0925 15.6104 24.1537 15.6104 24.1537 15.8706V16.5747C24.1537 16.7584 24.1537 16.8196 23.9088 16.8196H20.7709C20.4953 16.8196 20.5107 16.8196 20.5107 16.5747V11.6612C20.5107 11.4775 20.5872 11.4009 20.7709 11.4009H23.8323C24.016 11.4009 24.0772 11.4775 24.0772 11.6612V12.4265C24.0772 12.5949 24.0772 12.6714 23.8476 12.6714H21.8424C21.7352 12.6255 21.7352 12.6255 21.7352 12.7327ZM12.1683 15.8247V16.6207C12.1683 16.7584 12.0918 16.8196 11.954 16.8196H8.78544C8.60176 16.8196 8.54053 16.8196 8.54053 16.5747V11.6612C8.54053 11.4622 8.54053 11.4009 8.80075 11.4009H9.50487C9.68856 11.4009 9.74979 11.4775 9.74979 11.6459V15.5645H11.9999C12.0445 15.5693 12.086 15.589 12.118 15.6204C12.1499 15.6518 12.1704 15.693 12.176 15.7374C12.182 15.7666 12.1793 15.797 12.1683 15.8247ZM14.1276 11.6459V16.5747C14.1276 16.7584 14.1276 16.8196 13.8674 16.8196C13.6225 16.835 13.3776 16.835 13.1326 16.8196C13.0993 16.8249 13.0652 16.8222 13.0331 16.8117C13.001 16.8012 12.9718 16.7833 12.9479 16.7595C12.924 16.7356 12.9061 16.7064 12.8957 16.6743C12.8852 16.6422 12.8825 16.6081 12.8877 16.5747V11.6459C12.8796 11.6057 12.8824 11.564 12.8959 11.5253C12.9093 11.4865 12.9329 11.4521 12.9641 11.4255C12.9954 11.3989 13.0331 11.3812 13.0736 11.3742C13.114 11.3672 13.1555 11.3712 13.1939 11.3856H13.9133C13.9449 11.3875 13.9758 11.3958 14.004 11.4101C14.0323 11.4245 14.0572 11.4445 14.0773 11.4689C14.0975 11.4933 14.1123 11.5217 14.121 11.5521C14.1296 11.5826 14.1319 11.6145 14.1276 11.6459Z" fill="white"/>
</g>
</svg>
