<svg width="22" height="22" viewBox="0 0 22 22" fill="none" xmlns="http://www.w3.org/2000/svg">
<circle cx="11" cy="11" r="11" fill="#300000"/>
<path d="M8.32664 5.65001V16.15C8.32697 16.2563 8.35629 16.3605 8.41144 16.4514C8.46659 16.5423 8.54549 16.6164 8.63963 16.6658C8.73377 16.7152 8.8396 16.7379 8.94572 16.7317C9.05184 16.7254 9.15424 16.6903 9.24189 16.6301L16.8252 11.3801C17.1396 11.1625 17.1396 10.6387 16.8252 10.4205L9.24189 5.17051C9.15442 5.10974 9.05197 5.07411 8.94568 5.06748C8.83938 5.06084 8.73329 5.08347 8.63895 5.1329C8.54461 5.18232 8.46562 5.25666 8.41056 5.34783C8.3555 5.43899 8.32647 5.54351 8.32664 5.65001Z" fill="white"/>
</svg>
