<svg width="36" height="36" viewBox="0 0 36 36" fill="none" xmlns="http://www.w3.org/2000/svg">
<path fill-rule="evenodd" clip-rule="evenodd" d="M8.30268 1.36874C14.7483 0.655083 21.2529 0.655083 27.6985 1.36874C31.2673 1.76874 34.1464 4.57915 34.5652 8.1604C35.329 14.6979 35.329 21.3021 34.5652 27.8396C34.1464 31.4208 31.2673 34.2312 27.6985 34.6312C21.2529 35.3449 14.7483 35.3449 8.30268 34.6312C4.73392 34.2312 1.85476 31.4208 1.43601 27.8396C0.672372 21.3028 0.672372 14.6993 1.43601 8.16249C1.64782 6.42263 2.44097 4.80529 3.68691 3.57258C4.93286 2.33987 6.55858 1.56404 8.30059 1.37082M18.0006 7.5979C18.415 7.5979 18.8124 7.76252 19.1054 8.05555C19.3985 8.34857 19.5631 8.746 19.5631 9.1604V16.4375H26.8402C27.2546 16.4375 27.652 16.6021 27.945 16.8951C28.2381 17.1882 28.4027 17.5856 28.4027 18C28.4027 18.4144 28.2381 18.8118 27.945 19.1048C27.652 19.3979 27.2546 19.5625 26.8402 19.5625H19.5631V26.8396C19.5631 27.254 19.3985 27.6514 19.1054 27.9444C18.8124 28.2374 18.415 28.4021 18.0006 28.4021C17.5862 28.4021 17.1888 28.2374 16.8957 27.9444C16.6027 27.6514 16.4381 27.254 16.4381 26.8396V19.5625H9.16101C8.74661 19.5625 8.34918 19.3979 8.05615 19.1048C7.76313 18.8118 7.59851 18.4144 7.59851 18C7.59851 17.5856 7.76313 17.1882 8.05615 16.8951C8.34918 16.6021 8.74661 16.4375 9.16101 16.4375H16.4381V9.1604C16.4381 8.746 16.6027 8.34857 16.8957 8.05555C17.1888 7.76252 17.5862 7.5979 18.0006 7.5979Z" fill="black"/>
</svg>
